<svg xmlns="http://www.w3.org/2000/svg" xmlns:xlink="http://www.w3.org/1999/xlink" xmlns:lucid="lucid" width="2562.62" height="1662.45"><g transform="translate(-379.5 -279.5)" lucid:page-tab-id="0_0"><path d="M0 0h3000v2000H0z" fill="#fff"/><path d="M400 1187.45a6 6 0 0 1 6-6h788a6 6 0 0 1 6 6v728a6 6 0 0 1-6 6H406a6 6 0 0 1-6-6z" stroke="#3a414a" fill="#fff"/><use xlink:href="#a" transform="matrix(1,0,0,1,412,1193.450280775423) translate(0 17.77777777777778)"/><path d="M1260 1187.45a6 6 0 0 1 6-6h788a6 6 0 0 1 6 6v728a6 6 0 0 1-6 6h-788a6 6 0 0 1-6-6z" stroke="#3a414a" fill="#fff"/><use xlink:href="#b" transform="matrix(1,0,0,1,1272,1193.450280775423) translate(0 17.77777777777778)"/><path d="M1507.88 1267.45a6 6 0 0 1 6-6h278a6 6 0 0 1 6 6v48a6 6 0 0 1-6 6h-278a6 6 0 0 1-6-6z" stroke="#3a414a" fill="#fff"/><use xlink:href="#c" transform="matrix(1,0,0,1,1512.876090208445,1266.450280775423) translate(90.67901234567901 30.27777777777778)"/><path d="M1507.88 1427.45a6 6 0 0 1 6-6h278a6 6 0 0 1 6 6v48a6 6 0 0 1-6 6h-278a6 6 0 0 1-6-6z" stroke="#3a414a" fill="#fff"/><use xlink:href="#d" transform="matrix(1,0,0,1,1519.876090208445,1433.450280775423) translate(92.87654320987654 22.27777777777778)"/><path d="M1653.35 1404.57h-.95v-22.45h.95zm0-43.8h-.95v-38.32h.95z" stroke="#3a414a" stroke-width=".05" fill="#3a414a"/><path d="M1653.35 1322.46h-.95v-.5h.95z" fill="#3a414a"/><path stroke="#3a414a" stroke-width=".05" fill="#3a414a"/><path d="M1652.88 1419.33l-4.64-14.26h9.27z" fill="#3a414a"/><path d="M1652.88 1420.87l-5.3-16.28h10.6zm-4-15.33l4 12.26 3.98-12.26z" stroke="#3a414a" stroke-width=".05" fill="#3a414a"/><use xlink:href="#e" transform="matrix(1,0,0,1,1616.9007815664697,1360.7836141087562) translate(0 14.222222222222223)"/><path d="M1507.88 1487.45a6 6 0 0 1 6-6h278a6 6 0 0 1 6 6v48a6 6 0 0 1-6 6h-278a6 6 0 0 1-6-6z" fill="#fff" fill-opacity="0"/><path d="M1536.88 1481.45h-23a6 6 0 0 0-6 6v48a6 6 0 0 0 6 6h23" stroke="#3a414a" fill="none"/><use xlink:href="#f" transform="matrix(1,0,0,1,1531.001090208445,1486.450280775423) translate(0 29.444444444444443)"/><path d="M1653.03 1600.82l.16.06.15.4v43.3h-.95v-43l-.16-.06-.16-.4v-2.84h.95zm0-23.87h-.95v-35h.95z" stroke="#3a414a" stroke-width=".05" fill="#3a414a"/><path d="M1653.03 1541.96h-.95v-.5h.95z" fill="#3a414a"/><path stroke="#3a414a" stroke-width=".05" fill="#3a414a"/><path d="M1652.88 1659.33l-4.64-14.26h9.27z" fill="#3a414a"/><path d="M1652.88 1660.87l-5.3-16.28h10.6zm-4-15.33l4 12.26 3.98-12.26z" stroke="#3a414a" stroke-width=".05" fill="#3a414a"/><use xlink:href="#g" transform="matrix(1,0,0,1,1609.1450218450511,1576.9472684123375) translate(0 14.222222222222223)"/><path d="M1507.88 1667.45a6 6 0 0 1 6-6h278a6 6 0 0 1 6 6v48a6 6 0 0 1-6 6h-278a6 6 0 0 1-6-6z" stroke="#3a414a" fill="#fff"/><use xlink:href="#h" transform="matrix(1,0,0,1,1519.876090208445,1673.450280775423) translate(89.2037037037037 22.27777777777778)"/><path d="M1507.88 1727.45a6 6 0 0 1 6-6h278a6 6 0 0 1 6 6v108a6 6 0 0 1-6 6h-278a6 6 0 0 1-6-6z" fill="#fff" fill-opacity="0"/><path d="M1536.88 1721.45h-23a6 6 0 0 0-6 6v108a6 6 0 0 0 6 6h23" stroke="#3a414a" fill="none"/><use xlink:href="#i" transform="matrix(1,0,0,1,1531.001090208445,1726.450280775423) translate(7.222222222222221 32.77777777777778)"/><use xlink:href="#j" transform="matrix(1,0,0,1,1531.001090208445,1726.450280775423) translate(22.22222222222222 32.77777777777778)"/><use xlink:href="#k" transform="matrix(1,0,0,1,1531.001090208445,1726.450280775423) translate(22.22222222222222 59.44444444444445)"/><use xlink:href="#i" transform="matrix(1,0,0,1,1531.001090208445,1726.450280775423) translate(7.222222222222221 86.11111111111111)"/><use xlink:href="#l" transform="matrix(1,0,0,1,1531.001090208445,1726.450280775423) translate(22.22222222222222 86.11111111111111)"/><path d="M400 946a6 6 0 0 1 6-6h1648a6 6 0 0 1 6 6v148a6 6 0 0 1-6 6H406a6 6 0 0 1-6-6z" stroke="#3a414a" fill="#fff"/><use xlink:href="#m" transform="matrix(1,0,0,1,412,952) translate(0 17.77777777777778)"/><path d="M1180 306a6 6 0 0 1 6-6h248a6 6 0 0 1 6 6v48a6 6 0 0 1-6 6h-248a6 6 0 0 1-6-6z" stroke="#3a414a" fill="#fff"/><use xlink:href="#c" transform="matrix(1,0,0,1,1185,305) translate(75.67901234567901 30.27777777777778)"/><path d="M1600 306a6 6 0 0 1 6-6h148a6 6 0 0 1 6 6v48a6 6 0 0 1-6 6h-148a6 6 0 0 1-6-6z" stroke="#3a414a" fill="#fff"/><use xlink:href="#n" transform="matrix(1,0,0,1,1612,312) translate(45.22222222222223 22.27777777777778)"/><path d="M1484.03 330.48H1441v-.96h43.03zm99.1 0h-27.16v-.96h27.15z" stroke="#3a414a" stroke-width=".05" fill="#3a414a"/><path d="M1441 330.48h-.5v-.96h.5z" fill="#3a414a"/><path stroke="#3a414a" stroke-width=".05" fill="#3a414a"/><path d="M1597.88 330l-14.26 4.63v-9.26z" fill="#3a414a"/><path d="M1599.42 330l-16.28 5.3v-10.6zm-15.33 3.98l12.25-3.98-12.26-3.98z" stroke="#3a414a" stroke-width=".05" fill="#3a414a"/><use xlink:href="#e" transform="matrix(1,0,0,1,1484.0246913580247,319.3333333333333) translate(0 14.222222222222223)"/><path d="M720 306a6 6 0 0 1 6-6h278a6 6 0 0 1 6 6v48a6 6 0 0 1-6 6H726a6 6 0 0 1-6-6z" stroke="#3a414a" fill="#fff"/><use xlink:href="#d" transform="matrix(1,0,0,1,732,312) translate(92.87654320987654 22.27777777777778)"/><path d="M1059.03 330.48h-32.15v-.96h32.14zm119.97 0h-48.03v-.96H1179z" stroke="#3a414a" stroke-width=".05" fill="#3a414a"/><path d="M1179.5 330.48h-.5v-.96h.5z" fill="#3a414a"/><path stroke="#3a414a" stroke-width=".05" fill="#3a414a"/><path d="M1026.38 334.63l-14.26-4.63 14.26-4.63z" fill="#3a414a"/><path d="M1026.86 335.3l-16.28-5.3 16.28-5.3zm-13.2-5.3l12.25 3.98v-7.96z" stroke="#3a414a" stroke-width=".05" fill="#3a414a"/><use xlink:href="#e" transform="matrix(1,0,0,1,1059.0246913580247,319.3333333333333) translate(0 14.222222222222223)"/><path d="M720 366a6 6 0 0 1 6-6h278a6 6 0 0 1 6 6v48a6 6 0 0 1-6 6H726a6 6 0 0 1-6-6z" fill="#fff" fill-opacity="0"/><path d="M749 360h-23a6 6 0 0 0-6 6v48a6 6 0 0 0 6 6h23" stroke="#3a414a" fill="none"/><use xlink:href="#f" transform="matrix(1,0,0,1,743.125,365) translate(0 29.444444444444443)"/><path d="M1310.47 523.12h-.94v-62.45h.94zm0-83.8h-.94V361h.94z" stroke="#3a414a" stroke-width=".05" fill="#3a414a"/><path d="M1310.47 361h-.94v-.5h.94z" fill="#3a414a"/><path stroke="#3a414a" stroke-width=".05" fill="#3a414a"/><path d="M1310 537.88l-4.63-14.26h9.27z" fill="#3a414a"/><path d="M1310 539.42l-5.3-16.28h10.6zm-3.98-15.33l3.98 12.25 3.98-12.26z" stroke="#3a414a" stroke-width=".05" fill="#3a414a"/><use xlink:href="#g" transform="matrix(1,0,0,1,1266.5925925925926,439.3333333333333) translate(0 14.222222222222223)"/><path d="M1180 546a6 6 0 0 1 6-6h248a6 6 0 0 1 6 6v48a6 6 0 0 1-6 6h-248a6 6 0 0 1-6-6z" stroke="#3a414a" fill="#fff"/><use xlink:href="#o" transform="matrix(1,0,0,1,1192,552) translate(88.83333333333334 22.27777777777778)"/><path d="M1180 606a6 6 0 0 1 6-6h248a6 6 0 0 1 6 6v108a6 6 0 0 1-6 6h-248a6 6 0 0 1-6-6z" fill="#fff" fill-opacity="0"/><path d="M1206 600h-20a6 6 0 0 0-6 6v108a6 6 0 0 0 6 6h20" stroke="#3a414a" fill="none"/><use xlink:href="#i" transform="matrix(1,0,0,1,1201.25,605) translate(7.222222222222221 32.77777777777778)"/><use xlink:href="#p" transform="matrix(1,0,0,1,1201.25,605) translate(22.22222222222222 32.77777777777778)"/><use xlink:href="#q" transform="matrix(1,0,0,1,1201.25,605) translate(7.222222222222221 59.44444444444445)"/><use xlink:href="#r" transform="matrix(1,0,0,1,1201.25,605) translate(22.22222222222222 59.44444444444445)"/><use xlink:href="#i" transform="matrix(1,0,0,1,1201.25,605) translate(7.222222222222221 86.11111111111111)"/><use xlink:href="#s" transform="matrix(1,0,0,1,1201.25,605) translate(22.22222222222222 86.11111111111111)"/><path d="M1600 546a6 6 0 0 1 6-6h148a6 6 0 0 1 6 6v48a6 6 0 0 1-6 6h-148a6 6 0 0 1-6-6z" stroke="#3a414a" fill="#fff"/><use xlink:href="#t" transform="matrix(1,0,0,1,1612,552) translate(36.51851851851852 22.27777777777778)"/><path d="M1484.03 570.48H1441v-.96h43.03zm99.1 0h-27.16v-.96h27.15zM1441 570.48h-.5v-.96h.5z" stroke="#3a414a" stroke-width=".05" fill="#3a414a"/><path d="M1597.88 570l-14.26 4.63v-9.26z" fill="#3a414a"/><path d="M1599.42 570l-16.28 5.3v-10.6zm-15.33 3.98l12.25-3.98-12.26-3.98z" stroke="#3a414a" stroke-width=".05" fill="#3a414a"/><use xlink:href="#e" transform="matrix(1,0,0,1,1484.0246913580247,559.3333333333334) translate(0 14.222222222222223)"/><path d="M865.15 479.37l.17.06.15.4v43.3h-.95v-43l-.16-.06-.16-.4v-2.84h.95zm0-23.87h-.95v-35h.95z" stroke="#3a414a" stroke-width=".05" fill="#3a414a"/><path d="M865.15 420.5h-.95v-.5h.95z" fill="#3a414a"/><path stroke="#3a414a" stroke-width=".05" fill="#3a414a"/><path d="M865 537.88l-4.63-14.26h9.26z" fill="#3a414a"/><path d="M865 539.42l-5.3-16.28h10.6zm-3.98-15.33l3.98 12.25 3.98-12.26z" stroke="#3a414a" stroke-width=".05" fill="#3a414a"/><use xlink:href="#g" transform="matrix(1,0,0,1,821.2689316366061,455.4969876369147) translate(0 14.222222222222223)"/><path d="M720 546a6 6 0 0 1 6-6h278a6 6 0 0 1 6 6v48a6 6 0 0 1-6 6H726a6 6 0 0 1-6-6z" stroke="#3a414a" fill="#fff"/><use xlink:href="#h" transform="matrix(1,0,0,1,732,552) translate(89.2037037037037 22.27777777777778)"/><path d="M720 606a6 6 0 0 1 6-6h278a6 6 0 0 1 6 6v108a6 6 0 0 1-6 6H726a6 6 0 0 1-6-6z" fill="#fff" fill-opacity="0"/><path d="M749 600h-23a6 6 0 0 0-6 6v108a6 6 0 0 0 6 6h23" stroke="#3a414a" fill="none"/><use xlink:href="#i" transform="matrix(1,0,0,1,743.125,605) translate(7.222222222222221 32.77777777777778)"/><use xlink:href="#j" transform="matrix(1,0,0,1,743.125,605) translate(22.22222222222222 32.77777777777778)"/><use xlink:href="#k" transform="matrix(1,0,0,1,743.125,605) translate(22.22222222222222 59.44444444444445)"/><use xlink:href="#q" transform="matrix(1,0,0,1,743.125,605) translate(7.222222222222221 86.11111111111111)"/><use xlink:href="#l" transform="matrix(1,0,0,1,743.125,605) translate(22.22222222222222 86.11111111111111)"/><path d="M960 996a6 6 0 0 1 6-6h248a6 6 0 0 1 6 6v48a6 6 0 0 1-6 6H966a6 6 0 0 1-6-6z" stroke="#3a414a" fill="#fff"/><use xlink:href="#c" transform="matrix(1,0,0,1,965,995) translate(75.67901234567901 30.27777777777778)"/><path d="M1380 996a6 6 0 0 1 6-6h148a6 6 0 0 1 6 6v48a6 6 0 0 1-6 6h-148a6 6 0 0 1-6-6z" stroke="#3a414a" fill="#fff"/><use xlink:href="#n" transform="matrix(1,0,0,1,1392,1002) translate(45.22222222222223 22.27777777777778)"/><path d="M1264.03 1020.48H1221v-.96h43.03zm99.1 0h-27.16v-.96h27.15z" stroke="#3a414a" stroke-width=".05" fill="#3a414a"/><path d="M1221 1020.48h-.5v-.96h.5z" fill="#3a414a"/><path stroke="#3a414a" stroke-width=".05" fill="#3a414a"/><path d="M1377.88 1020l-14.26 4.63v-9.27z" fill="#3a414a"/><path d="M1379.42 1020l-16.28 5.3v-10.6zm-15.33 3.98l12.25-3.98-12.26-3.98z" stroke="#3a414a" stroke-width=".05" fill="#3a414a"/><use xlink:href="#e" transform="matrix(1,0,0,1,1264.0246913580247,1009.3333333333334) translate(0 14.222222222222223)"/><path d="M562.84 1265.5a6 6 0 0 1 6-6h248a6 6 0 0 1 6 6v48a6 6 0 0 1-6 6h-248a6 6 0 0 1-6-6z" stroke="#3a414a" fill="#fff"/><use xlink:href="#c" transform="matrix(1,0,0,1,567.8367918722435,1264.5000499999999) translate(75.67901234567901 30.27777777777778)"/><path d="M1073.24 1060.08c0 .83-.67 1.5-1.5 1.5s-1.5-.67-1.5-1.5c0-.82.67-1.5 1.5-1.5s1.5.68 1.5 1.5zm-5.3 2.8c0 .82-.67 1.5-1.5 1.5s-1.5-.68-1.5-1.5c0-.84.67-1.5 1.5-1.5s1.5.66 1.5 1.5zm-5.3 2.77c0 .83-.68 1.5-1.5 1.5-.83 0-1.5-.67-1.5-1.5s.67-1.5 1.5-1.5c.82 0 1.5.67 1.5 1.5zm-5.3 2.8c0 .82-.68 1.5-1.5 1.5-.84 0-1.5-.68-1.5-1.5 0-.84.66-1.5 1.5-1.5.82 0 1.5.66 1.5 1.5zm-5.3 2.77c0 .83-.68 1.5-1.5 1.5-.84 0-1.5-.67-1.5-1.5s.66-1.5 1.5-1.5c.82 0 1.5.67 1.5 1.5zm-5.32 2.8c0 .8-.67 1.5-1.5 1.5-.82 0-1.5-.7-1.5-1.5 0-.84.68-1.5 1.5-1.5.83 0 1.5.66 1.5 1.5zm-5.3 2.77c0 .82-.67 1.5-1.5 1.5s-1.5-.68-1.5-1.5c0-.84.67-1.5 1.5-1.5s1.5.66 1.5 1.5zm-5.3 2.77c0 .83-.67 1.5-1.5 1.5s-1.5-.67-1.5-1.5c0-.82.67-1.5 1.5-1.5s1.5.68 1.5 1.5zm-5.3 2.8c0 .82-.68 1.5-1.5 1.5-.84 0-1.5-.68-1.5-1.5 0-.84.66-1.5 1.5-1.5.82 0 1.5.66 1.5 1.5zm-5.3 2.77c0 .83-.68 1.5-1.5 1.5-.84 0-1.5-.67-1.5-1.5s.66-1.5 1.5-1.5c.82 0 1.5.67 1.5 1.5zm-5.3 2.8c0 .82-.7 1.5-1.5 1.5-.84 0-1.5-.68-1.5-1.5 0-.84.66-1.5 1.5-1.5.8 0 1.5.66 1.5 1.5zm-5.32 2.77c0 .84-.67 1.5-1.5 1.5s-1.5-.66-1.5-1.5c0-.82.67-1.5 1.5-1.5s1.5.68 1.5 1.5zm-5.3 2.8c0 .82-.67 1.5-1.5 1.5s-1.5-.68-1.5-1.5c0-.83.67-1.5 1.5-1.5s1.5.67 1.5 1.5zm-5.3 2.78c0 .83-.68 1.5-1.5 1.5-.83 0-1.5-.67-1.5-1.5s.67-1.5 1.5-1.5c.82 0 1.5.67 1.5 1.5zm-5.3 2.78c0 .83-.68 1.5-1.5 1.5-.84 0-1.5-.67-1.5-1.5 0-.82.66-1.5 1.5-1.5.82 0 1.5.68 1.5 1.5zm-5.3 2.8c0 .82-.68 1.5-1.5 1.5-.84 0-1.5-.68-1.5-1.5 0-.84.66-1.5 1.5-1.5.82 0 1.5.66 1.5 1.5zm-5.32 2.77c0 .83-.67 1.5-1.5 1.5-.82 0-1.5-.67-1.5-1.5s.68-1.5 1.5-1.5c.83 0 1.5.67 1.5 1.5zm-5.3 2.8c0 .82-.67 1.5-1.5 1.5s-1.5-.68-1.5-1.5c0-.84.67-1.5 1.5-1.5s1.5.66 1.5 1.5zm-5.3 2.77c0 .83-.67 1.5-1.5 1.5s-1.5-.67-1.5-1.5.67-1.5 1.5-1.5 1.5.67 1.5 1.5zm-5.3 2.8c0 .8-.68 1.5-1.5 1.5-.84 0-1.5-.7-1.5-1.5 0-.84.66-1.5 1.5-1.5.82 0 1.5.66 1.5 1.5zm-5.3 2.77c0 .83-.68 1.5-1.5 1.5-.84 0-1.5-.67-1.5-1.5s.66-1.5 1.5-1.5c.82 0 1.5.67 1.5 1.5zm-5.3 2.78c0 .83-.7 1.5-1.5 1.5-.84 0-1.5-.67-1.5-1.5 0-.82.66-1.5 1.5-1.5.8 0 1.5.68 1.5 1.5zm-5.32 2.8c0 .82-.67 1.5-1.5 1.5s-1.5-.68-1.5-1.5c0-.84.67-1.5 1.5-1.5s1.5.66 1.5 1.5zm-5.3 2.77c0 .83-.67 1.5-1.5 1.5s-1.5-.67-1.5-1.5.67-1.5 1.5-1.5 1.5.67 1.5 1.5zm-5.3 2.8c0 .82-.68 1.5-1.5 1.5-.83 0-1.5-.68-1.5-1.5 0-.84.67-1.5 1.5-1.5.82 0 1.5.66 1.5 1.5zm-5.3 2.77c0 .82-.68 1.5-1.5 1.5-.84 0-1.5-.68-1.5-1.5 0-.84.66-1.5 1.5-1.5.82 0 1.5.66 1.5 1.5zm-5.3 2.78c0 .82-.68 1.5-1.5 1.5-.84 0-1.5-.68-1.5-1.5 0-.83.66-1.5 1.5-1.5.82 0 1.5.67 1.5 1.5zm-5.32 2.78c0 .83-.67 1.5-1.5 1.5-.82 0-1.5-.67-1.5-1.5s.68-1.5 1.5-1.5c.83 0 1.5.67 1.5 1.5zm-5.3 2.78c0 .83-.67 1.5-1.5 1.5s-1.5-.67-1.5-1.5c0-.82.67-1.5 1.5-1.5s1.5.68 1.5 1.5zm-5.3 2.8c0 .82-.68 1.5-1.5 1.5-.83 0-1.5-.68-1.5-1.5 0-.84.67-1.5 1.5-1.5.82 0 1.5.66 1.5 1.5zm-5.3 2.77c0 .84-.68 1.5-1.5 1.5-.84 0-1.5-.66-1.5-1.5 0-.82.66-1.5 1.5-1.5.82 0 1.5.68 1.5 1.5zm-5.3 2.8c0 .83-.68 1.5-1.5 1.5-.84 0-1.5-.67-1.5-1.5s.66-1.5 1.5-1.5c.82 0 1.5.67 1.5 1.5zm-5.3 2.78c0 .83-.7 1.5-1.5 1.5-.84 0-1.5-.67-1.5-1.5s.66-1.5 1.5-1.5c.8 0 1.5.67 1.5 1.5zm-5.32 2.8c0 .8-.67 1.5-1.5 1.5s-1.5-.7-1.5-1.5c0-.84.67-1.5 1.5-1.5s1.5.66 1.5 1.5zm-5.3 2.77c0 .83-.67 1.5-1.5 1.5s-1.5-.67-1.5-1.5.67-1.5 1.5-1.5 1.5.67 1.5 1.5zm-5.3 2.78c0 .83-.68 1.5-1.5 1.5-.83 0-1.5-.67-1.5-1.5 0-.82.67-1.5 1.5-1.5.82 0 1.5.68 1.5 1.5zm-5.3 2.8c0 .82-.68 1.5-1.5 1.5-.84 0-1.5-.68-1.5-1.5 0-.84.66-1.5 1.5-1.5.82 0 1.5.66 1.5 1.5zm-5.3 2.77c0 .83-.68 1.5-1.5 1.5-.84 0-1.5-.67-1.5-1.5s.66-1.5 1.5-1.5c.82 0 1.5.67 1.5 1.5zm-5.32 2.8c0 .82-.67 1.5-1.5 1.5s-1.5-.68-1.5-1.5c0-.84.67-1.5 1.5-1.5s1.5.66 1.5 1.5zm-5.3 2.77c0 .83-.67 1.5-1.5 1.5s-1.5-.67-1.5-1.5.67-1.5 1.5-1.5 1.5.67 1.5 1.5zm-5.3 2.8c0 .8-.68 1.5-1.5 1.5-.83 0-1.5-.7-1.5-1.5 0-.84.67-1.5 1.5-1.5.82 0 1.5.66 1.5 1.5zm-5.3 2.77c0 .83-.68 1.5-1.5 1.5-.84 0-1.5-.67-1.5-1.5s.66-1.5 1.5-1.5c.82 0 1.5.67 1.5 1.5zm-5.3 2.78c0 .83-.68 1.5-1.5 1.5-.84 0-1.5-.67-1.5-1.5 0-.82.66-1.5 1.5-1.5.82 0 1.5.68 1.5 1.5zm-5.32 2.8c0 .82-.67 1.5-1.5 1.5-.82 0-1.5-.68-1.5-1.5 0-.84.68-1.5 1.5-1.5.83 0 1.5.66 1.5 1.5zm-5.3 2.77c0 .82-.67 1.5-1.5 1.5s-1.5-.68-1.5-1.5c0-.84.67-1.5 1.5-1.5s1.5.66 1.5 1.5zm-5.3 2.78c0 .83-.67 1.5-1.5 1.5s-1.5-.67-1.5-1.5.67-1.5 1.5-1.5 1.5.67 1.5 1.5zm-5.3 2.78c0 .83-.68 1.5-1.5 1.5-.83 0-1.5-.67-1.5-1.5s.67-1.5 1.5-1.5c.82 0 1.5.67 1.5 1.5zm-5.3 2.8c0 .8-.68 1.5-1.5 1.5-.84 0-1.5-.7-1.5-1.5 0-.84.66-1.5 1.5-1.5.82 0 1.5.66 1.5 1.5zm-5.3 2.77c0 .83-.68 1.5-1.5 1.5-.84 0-1.5-.67-1.5-1.5s.66-1.5 1.5-1.5c.82 0 1.5.67 1.5 1.5zm-5.32 2.78c0 .84-.67 1.5-1.5 1.5s-1.5-.66-1.5-1.5c0-.8.67-1.5 1.5-1.5s1.5.7 1.5 1.5zm-5.3 2.8c0 .83-.67 1.5-1.5 1.5s-1.5-.67-1.5-1.5.67-1.5 1.5-1.5 1.5.67 1.5 1.5zm-5.3 2.78c0 .83-.67 1.5-1.5 1.5s-1.5-.67-1.5-1.5.67-1.5 1.5-1.5 1.5.67 1.5 1.5zm-5.3 2.8c0 .82-.68 1.5-1.5 1.5-.84 0-1.5-.68-1.5-1.5 0-.84.66-1.5 1.5-1.5.82 0 1.5.66 1.5 1.5zm-5.3 2.77c0 .83-.68 1.5-1.5 1.5-.84 0-1.5-.67-1.5-1.5s.66-1.5 1.5-1.5c.82 0 1.5.67 1.5 1.5zm-5.3 2.8c0 .8-.7 1.5-1.5 1.5-.84 0-1.5-.7-1.5-1.5 0-.84.66-1.5 1.5-1.5.8 0 1.5.66 1.5 1.5zm-5.32 2.77c0 .83-.67 1.5-1.5 1.5s-1.5-.67-1.5-1.5.67-1.5 1.5-1.5 1.5.67 1.5 1.5zm-5.3 2.78c0 .83-.67 1.5-1.5 1.5s-1.5-.67-1.5-1.5c0-.82.67-1.5 1.5-1.5s1.5.68 1.5 1.5zm-5.3 2.8c0 .82-.68 1.5-1.5 1.5-.83 0-1.5-.68-1.5-1.5 0-.84.67-1.5 1.5-1.5.82 0 1.5.66 1.5 1.5zm-5.3 2.77c0 .83-.68 1.5-1.5 1.5-.84 0-1.5-.67-1.5-1.5s.66-1.5 1.5-1.5c.82 0 1.5.67 1.5 1.5zm-5.3 2.8c0 .82-.7 1.5-1.5 1.5-.84 0-1.5-.68-1.5-1.5 0-.84.66-1.5 1.5-1.5.8 0 1.5.66 1.5 1.5zm-5.32 2.77c0 .83-.67 1.5-1.5 1.5-.82 0-1.5-.67-1.5-1.5s.68-1.5 1.5-1.5c.83 0 1.5.67 1.5 1.5zm-5.3 2.8c0 .8-.67 1.5-1.5 1.5s-1.5-.7-1.5-1.5c0-.84.67-1.5 1.5-1.5s1.5.66 1.5 1.5zm-5.3 2.77c0 .84-.68 1.5-1.5 1.5-.83 0-1.5-.66-1.5-1.5 0-.82.67-1.5 1.5-1.5.82 0 1.5.68 1.5 1.5zm-5.3 2.8c0 .82-.68 1.5-1.5 1.5-.84 0-1.5-.68-1.5-1.5 0-.83.66-1.5 1.5-1.5.82 0 1.5.67 1.5 1.5zm-5.3 2.78c0 .83-.68 1.5-1.5 1.5-.84 0-1.5-.67-1.5-1.5s.66-1.5 1.5-1.5c.82 0 1.5.67 1.5 1.5zm-5.32 2.78c0 .83-.67 1.5-1.5 1.5-.82 0-1.5-.67-1.5-1.5s.68-1.5 1.5-1.5c.83 0 1.5.67 1.5 1.5zm-5.3 2.8c0 .82-.67 1.5-1.5 1.5s-1.5-.68-1.5-1.5c0-.84.67-1.5 1.5-1.5s1.5.66 1.5 1.5zm-5.3 2.77c0 .83-.67 1.5-1.5 1.5s-1.5-.67-1.5-1.5.67-1.5 1.5-1.5 1.5.67 1.5 1.5z" fill="#3a414a"/><path d="M1085.7 1052.76l-10.47 10.73-4.3-8.22zM697.13 1256.74L707.6 1246l4.32 8.22z" stroke="#3a414a" stroke-width="3" fill="#3a414a"/><path d="M693.3 1482.12h-.94v-62.2h.95zm0-83.54h-.94v-78.08h.95z" stroke="#3a414a" stroke-width=".05" fill="#3a414a"/><path d="M693.3 1320.5h-.94v-.5h.95z" fill="#3a414a"/><path stroke="#3a414a" stroke-width=".05" fill="#3a414a"/><path d="M692.84 1496.88l-4.64-14.26h9.27z" fill="#3a414a"/><path d="M692.84 1498.42l-5.3-16.28h10.6zm-4-15.33l4 12.25 3.98-12.26z" stroke="#3a414a" stroke-width=".05" fill="#3a414a"/><use xlink:href="#g" transform="matrix(1,0,0,1,649.4293844648361,1398.5834083333332) translate(0 14.222222222222223)"/><path d="M562.84 1505a6 6 0 0 1 6-6h248a6 6 0 0 1 6 6v48a6 6 0 0 1-6 6h-248a6 6 0 0 1-6-6z" stroke="#3a414a" fill="#fff"/><use xlink:href="#o" transform="matrix(1,0,0,1,574.8367918722435,1511.0001) translate(88.83333333333334 22.27777777777778)"/><path d="M562.84 1565a6 6 0 0 1 6-6h248a6 6 0 0 1 6 6v108a6 6 0 0 1-6 6h-248a6 6 0 0 1-6-6z" fill="#fff" fill-opacity="0"/><path d="M588.84 1559h-20a6 6 0 0 0-6 6v108a6 6 0 0 0 6 6h20" stroke="#3a414a" fill="none"/><use xlink:href="#i" transform="matrix(1,0,0,1,584.0867918722435,1564.0001) translate(7.222222222222221 32.77777777777778)"/><use xlink:href="#p" transform="matrix(1,0,0,1,584.0867918722435,1564.0001) translate(22.22222222222222 32.77777777777778)"/><use xlink:href="#i" transform="matrix(1,0,0,1,584.0867918722435,1564.0001) translate(7.222222222222221 59.44444444444445)"/><use xlink:href="#r" transform="matrix(1,0,0,1,584.0867918722435,1564.0001) translate(22.22222222222222 59.44444444444445)"/><use xlink:href="#i" transform="matrix(1,0,0,1,584.0867918722435,1564.0001) translate(7.222222222222221 86.11111111111111)"/><use xlink:href="#s" transform="matrix(1,0,0,1,584.0867918722435,1564.0001) translate(22.22222222222222 86.11111111111111)"/><path d="M982.84 1505a6 6 0 0 1 6-6h148a6 6 0 0 1 6 6v48a6 6 0 0 1-6 6h-148a6 6 0 0 1-6-6z" stroke="#3a414a" fill="#fff"/><use xlink:href="#t" transform="matrix(1,0,0,1,994.8367918722433,1511.0001) translate(36.51851851851852 22.27777777777778)"/><path d="M866.86 1529.47h-43.02v-.94h43.02zm99.1 0H938.8v-.94h27.15z" stroke="#3a414a" stroke-width=".05" fill="#3a414a"/><path d="M823.85 1529.47h-.5v-.94h.5z" stroke="#3a414a" stroke-width=".05" fill="#3a414a"/><path d="M980.72 1529l-14.27 4.63v-9.27z" fill="#3a414a"/><path d="M982.26 1529l-16.28 5.3v-10.6zm-15.33 3.98l12.25-3.98-12.25-3.98z" stroke="#3a414a" stroke-width=".05" fill="#3a414a"/><use xlink:href="#e" transform="matrix(1,0,0,1,866.8614832302682,1518.3334333333332) translate(0 14.222222222222223)"/><path d="M1629 1250.55l.44 1.06-.43 1.07-1.06.44-1.06-.43-.44-1.06.44-1.05 1.06-.44zm-5.62-2.1l.44 1.05-.44 1.06-1.06.44-1.06-.44-.44-1.06.44-1.06 1.06-.44zm-5.62-2.12l.44 1.06-.44 1.05-1.06.44-1.06-.45-.44-1.06.44-1.07 1.06-.44zm-5.62-2.1l.44 1.06-.44 1.05-1.06.44-1.06-.45-.44-1.06.44-1.08 1.06-.43zm-5.63-2.1l.45 1.05-.44 1.06-1.05.44-1.06-.44-.45-1.06.44-1.06 1.05-.44zm-5.6-2.12l.43 1.07-.44 1.06-1.07.44-1.06-.44-.44-1.06.44-1.06 1.06-.43zm-5.63-2.1l.44 1.06-.43 1.06-1.06.44-1.05-.44-.44-1.06.45-1.06 1.06-.44zm-5.63-2.1l.44 1.06-.43 1.06-1.07.44-1.06-.44-.44-1.06.44-1.06 1.06-.44zm-5.62-2.1l.44 1.05-.44 1.06-1.06.45-1.06-.44-.44-1.05.44-1.06 1.06-.45zm-5.62-2.12l.44 1.06-.44 1.06-1.06.44-1.06-.44-.44-1.06.44-1.06 1.06-.44zm-5.62-2.1l.44 1.05-.44 1.07-1.06.43-1.07-.43-.43-1.07.43-1.06 1.07-.44zm-5.63-2.1l.44 1.05-.45 1.06-1.06.43-1.07-.44-.44-1.07.43-1.06 1.06-.44zm-5.62-2.12l.44 1.06-.44 1.06-1.06.44-1.06-.44-.43-1.06.44-1.06 1.07-.44zm-5.62-2.1l.45 1.05-.44 1.07-1.05.44-1.06-.43-.45-1.06.44-1.05 1.05-.44zm-5.62-2.12l.44 1.07-.43 1.07-1.08.43-1.06-.43-.44-1.07.44-1.06 1.06-.43zm-5.62-2.1l.44 1.06-.44 1.06-1.06.44-1.06-.44-.44-1.06.44-1.06 1.06-.44zm-5.62-2.1l.44 1.05-.44 1.05-1.06.44-1.06-.45-.44-1.06.44-1.07 1.06-.44zm-5.62-2.12l.43 1.06-.43 1.06-1.07.44-1.05-.44-.44-1.06.44-1.06 1.06-.44zm-5.63-2.1l.43 1.06-.44 1.06-1.07.44-1.06-.44-.44-1.06.44-1.07 1.06-.42zm-5.63-2.1l.44 1.05-.43 1.06-1.06.44-1.05-.44-.44-1.06.45-1.06 1.06-.43zm-5.62-2.12l.44 1.06-.45 1.06-1.06.44-1.07-.44-.44-1.06.43-1.06 1.06-.44zm-5.63-2.1l.44 1.05-.44 1.06-1.06.45-1.06-.44-.44-1.05.44-1.06 1.06-.45zm-5.62-2.1l.44 1.05-.44 1.06-1.06.45-1.06-.44-.44-1.05.44-1.06 1.06-.45zm-5.62-2.12l.44 1.06-.44 1.06-1.06.44-1.06-.44-.44-1.06.44-1.06 1.06-.44zm-5.62-2.1l.43 1.05-.44 1.06-1.07.43-1.07-.44-.44-1.07.43-1.06 1.06-.44zm-5.63-2.12l.44 1.07-.44 1.05-1.06.44-1.06-.44-.43-1.06.44-1.06 1.07-.43zm-5.62-2.1l.45 1.06-.44 1.06-1.05.44-1.06-.44-.45-1.06.44-1.06 1.05-.44zm-5.6-2.1l.43 1.05-.44 1.07-1.07.44-1.06-.43-.44-1.06.44-1.05 1.06-.44zm-5.64-2.12l.44 1.06-.44 1.06-1.06.44-1.06-.44-.44-1.06.44-1.06 1.06-.44zm-5.62-2.1l.44 1.05-.44 1.06-1.06.43-1.06-.44-.44-1.07.44-1.07 1.06-.44zm-5.62-2.1l.44 1.05-.44 1.05-1.06.44-1.06-.45-.44-1.06.44-1.07 1.06-.44zm-5.63-2.12l.43 1.06-.44 1.06-1.07.44-1.06-.44-.43-1.06.43-1.06 1.07-.44zm-5.63-2.1l.44 1.05-.43 1.06-1.06.44-1.05-.44-.44-1.06.45-1.06 1.06-.43zm-5.62-2.1l.44 1.05-.45 1.06-1.06.44-1.07-.44-.44-1.06.43-1.06 1.06-.43zm-5.62-2.12l.44 1.06-.44 1.06-1.06.44-1.07-.44-.43-1.06.43-1.06 1.07-.44zm-5.63-2.1l.44 1.05-.44 1.06-1.06.45-1.06-.44-.44-1.05.44-1.06 1.06-.45zm-5.62-2.12l.44 1.06-.44 1.07-1.06.44-1.06-.43-.44-1.06.44-1.06 1.06-.44zm-5.62-2.1l.44 1.06-.44 1.06-1.06.44-1.06-.44-.44-1.06.44-1.06 1.06-.44zm-5.63-2.1l.44 1.05-.43 1.06-1.07.43-1.06-.44-.43-1.07.44-1.06 1.07-.44zm-5.62-2.12l.45 1.06-.44 1.06-1.05.44-1.06-.44-.45-1.06.44-1.06 1.05-.44zm-5.6-2.1l.43 1.06-.44 1.06-1.07.43-1.06-.42-.44-1.07.44-1.04 1.06-.44zm-5.63-2.1l.44 1.05-.43 1.07-1.06.44-1.06-.43-.43-1.06.44-1.05 1.07-.44zm-5.63-2.12l.44 1.06-.44 1.06-1.06.44-1.06-.44-.44-1.06.44-1.06 1.06-.44zm-5.62-2.1l.44 1.05-.44 1.05-1.06.44-1.06-.45-.44-1.06.44-1.07 1.06-.44zm-5.62-2.12l.44 1.07-.44 1.05-1.06.44-1.06-.45-.44-1.06.44-1.08 1.06-.43zm-5.63-2.1l.44 1.06-.43 1.06-1.06.44-1.05-.44-.44-1.06.45-1.06 1.06-.44zm-5.62-2.1l.44 1.05-.45 1.06-1.06.44-1.07-.44-.44-1.06.43-1.06 1.06-.43zm-5.62-2.12l.44 1.06-.44 1.07-1.06.43-1.06-.43-.43-1.07.44-1.06 1.07-.44zm-5.62-2.1l.45 1.06-.44 1.06-1.05.44-1.07-.44-.43-1.06.43-1.06 1.07-.44zm-5.62-2.1l.44 1.05-.44 1.06-1.06.45-1.06-.44-.44-1.05.44-1.06 1.06-.45zm-5.62-2.12l.44 1.06-.44 1.06-1.06.44-1.06-.44-.44-1.06.44-1.06 1.06-.44zm-5.62-2.1l.44 1.06-.44 1.06-1.06.43-1.06-.43-.44-1.07.44-1.06 1.06-.43zm-5.63-2.1l.45 1.05-.44 1.06-1.05.43-1.06-.44-.45-1.07.44-1.06 1.05-.44zm-5.6-2.12l.43 1.06-.44 1.06-1.07.44-1.06-.44-.44-1.06.44-1.06 1.06-.44zm-5.63-2.1l.44 1.05-.43 1.07-1.06.44-1.05-.43-.44-1.06.45-1.05 1.06-.44zm-5.63-2.12l.44 1.07-.44 1.07-1.06.44-1.06-.43-.43-1.06.42-1.06 1.07-.43zm-5.62-2.1l.44 1.06-.44 1.06-1.06.44-1.06-.44-.44-1.06.44-1.06 1.06-.44zm-5.62-2.1l.44 1.05-.44 1.05-1.06.44-1.06-.45-.44-1.06.44-1.07 1.06-.44zm-5.62-2.12l.44 1.06-.44 1.06-1.06.44-1.06-.44-.44-1.06.44-1.06 1.06-.44zm-5.63-2.1l.44 1.06-.45 1.06-1.06.44-1.07-.44-.44-1.06.43-1.06 1.06-.44zm-5.62-2.1l.44 1.05-.44 1.06-1.06.44-1.06-.44-.43-1.06.44-1.06 1.07-.43zM1286 1122l.45 1.06-.44 1.06-1.05.44-1.06-.44-.45-1.06.44-1.06 1.05-.44zm-5.62-2.1l.44 1.05-.43 1.07-1.08.43-1.06-.43-.44-1.07.44-1.06 1.06-.45zm-5.62-2.1l.44 1.05-.44 1.06-1.06.45-1.06-.44-.44-1.05.44-1.06 1.06-.45zm-5.62-2.12l.44 1.06-.44 1.06-1.06.44-1.06-.44-.44-1.06.44-1.06 1.06-.44zm-5.62-2.1l.44 1.05-.44 1.06-1.06.43-1.07-.44-.44-1.07.43-1.06 1.06-.44zm-5.63-2.12l.43 1.07-.44 1.06-1.07.43-1.06-.44-.44-1.07.44-1.07 1.06-.43zm-5.63-2.1l.44 1.06-.43 1.06-1.06.44-1.05-.44-.44-1.06.45-1.06 1.06-.44zm-5.62-2.1l.44 1.05-.45 1.07-1.06.44-1.07-.43-.44-1.06.43-1.05 1.06-.44zm-5.63-2.12l.44 1.06-.43 1.06-1.07.44-1.06-.44-.44-1.06.44-1.06 1.06-.44zm-5.62-2.1l.44 1.06-.44 1.06-1.06.44-1.06-.44-.44-1.06.44-1.06 1.06-.44zm-5.62-2.1l.44 1.05-.44 1.05-1.06.44-1.06-.45-.44-1.06.44-1.07 1.06-.44zm-5.62-2.12l.43 1.06-.44 1.06-1.07.44-1.06-.44-.44-1.06.44-1.06 1.06-.44zm-5.63-2.1l.44 1.06-.44 1.06-1.06.44-1.06-.44-.43-1.06.44-1.07 1.07-.42zm-5.62-2.1l.45 1.05-.44 1.06-1.05.44-1.06-.44-.45-1.06.44-1.06 1.05-.43zm-5.6-2.12l.43 1.06-.44 1.06-1.07.44-1.06-.44-.44-1.06.44-1.06 1.06-.44zm-5.64-2.1l.44 1.05-.44 1.06-1.06.45-1.06-.44-.44-1.05.44-1.06 1.06-.45zm-5.62-2.12l.44 1.07-.44 1.06-1.06.45-1.06-.44-.44-1.05.44-1.06 1.06-.45zm-5.62-2.1l.44 1.06-.44 1.06-1.06.44-1.06-.44-.44-1.06.44-1.06 1.06-.44zm-5.62-2.1l.43 1.05-.43 1.06-1.07.43-1.06-.44-.44-1.07.44-1.06 1.06-.44zm-5.63-2.12l.44 1.06-.43 1.06-1.06.44-1.05-.44-.44-1.06.45-1.06 1.06-.44zm-5.62-2.1l.44 1.06-.45 1.06-1.06.44-1.07-.44-.44-1.06.43-1.06 1.06-.44zm-5.62-2.1l.44 1.05-.44 1.07-1.06.44-1.06-.43-.43-1.06.44-1.05 1.07-.44zm-5.63-2.12l.44 1.06-.44 1.06-1.06.44-1.06-.44-.44-1.06.44-1.06 1.06-.44zm-5.62-2.1l.44 1.05-.44 1.06-1.06.43-1.06-.44-.44-1.07.44-1.07 1.06-.44zm-5.62-2.1l.44 1.05-.44 1.05-1.06.44-1.06-.45-.44-1.06.44-1.07 1.06-.44zm-5.63-2.12l.44 1.06-.43 1.06-1.07.44-1.06-.44-.42-1.06.43-1.06 1.08-.44zm-5.62-2.1l.45 1.05-.44 1.06-1.05.44-1.06-.44-.45-1.06.44-1.06 1.05-.43zm-5.6-2.12l.43 1.07-.44 1.06-1.07.43-1.06-.43-.44-1.07.44-1.06 1.06-.43zm-5.63-2.1l.44 1.06-.43 1.06-1.06.44-1.06-.44-.43-1.06.44-1.06 1.07-.44zm-5.63-2.1l.44 1.05-.44 1.06-1.06.45-1.06-.44-.44-1.05.44-1.06 1.06-.45zm-5.62-2.12l.44 1.06-.44 1.06-1.06.44-1.06-.44-.44-1.06.44-1.06 1.06-.44zm-5.62-2.1l.44 1.06-.44 1.06-1.06.44-1.06-.44-.44-1.06.44-1.06 1.06-.44zM1110.86 1052.87l-3.25 8.68-11.73-9.35z" fill="#3a414a"/><path d="M1112.95 1051.5l-4.67 12.47-16.88-13.44zm-6 7.63l1.82-4.88-8.43-.37z" stroke="#3a414a" stroke-width=".05" fill="#3a414a"/><path d="M1648.33 1259.25l-14.98-.67 3.25-8.68z" fill="#3a414a"/><path d="M1652.8 1260.92l-21.55-.96 4.68-12.48zm-17.36-3.72l8.42.37-6.6-5.25z" stroke="#3a414a" stroke-width=".05" fill="#3a414a"/><path d="M2121.62 1187.45a6 6 0 0 1 6-6h788a6 6 0 0 1 6 6v728a6 6 0 0 1-6 6h-788a6 6 0 0 1-6-6z" stroke="#3a414a" fill="#fff"/><use xlink:href="#u" transform="matrix(1,0,0,1,2133.6239597915537,1193.450280775423) translate(0 17.77777777777778)"/><path d="M2361.62 1426a6 6 0 0 1 6-6h278a6 6 0 0 1 6 6v48a6 6 0 0 1-6 6h-278a6 6 0 0 1-6-6z" stroke="#3a414a" fill="#fff"/><use xlink:href="#d" transform="matrix(1,0,0,1,2373.6239597915537,1432) translate(92.87654320987654 22.27777777777778)"/><path d="M2361.62 1486a6 6 0 0 1 6-6h278a6 6 0 0 1 6 6v48a6 6 0 0 1-6 6h-278a6 6 0 0 1-6-6z" fill="#fff" fill-opacity="0"/><path d="M2390.62 1480h-23a6 6 0 0 0-6 6v48a6 6 0 0 0 6 6h23" stroke="#3a414a" fill="none"/><use xlink:href="#f" transform="matrix(1,0,0,1,2384.7489597915537,1485) translate(0 29.444444444444443)"/><path d="M2506.78 1599.37l.16.06.16.4v43.3h-.95v-43l-.17-.06-.16-.4v-2.84h.95zm0-23.87h-.96v-35h.95z" stroke="#3a414a" stroke-width=".05" fill="#3a414a"/><path d="M2506.78 1540.5h-.96v-.5h.95z" fill="#3a414a"/><path stroke="#3a414a" stroke-width=".05" fill="#3a414a"/><path d="M2506.62 1657.88l-4.63-14.26h9.26z" fill="#3a414a"/><path d="M2506.62 1659.42l-5.28-16.28h10.57zm-3.98-15.33l3.98 12.25 4-12.26z" stroke="#3a414a" stroke-width=".05" fill="#3a414a"/><g><use xlink:href="#g" transform="matrix(1,0,0,1,2462.89289142816,1575.4969876369146) translate(0 14.222222222222223)"/></g><path d="M2361.62 1666a6 6 0 0 1 6-6h278a6 6 0 0 1 6 6v48a6 6 0 0 1-6 6h-278a6 6 0 0 1-6-6z" stroke="#3a414a" fill="#fff"/><g><use xlink:href="#h" transform="matrix(1,0,0,1,2373.6239597915537,1672) translate(89.2037037037037 22.27777777777778)"/></g><path d="M2361.62 1726a6 6 0 0 1 6-6h278a6 6 0 0 1 6 6v108a6 6 0 0 1-6 6h-278a6 6 0 0 1-6-6z" fill="#fff" fill-opacity="0"/><path d="M2390.62 1720h-23a6 6 0 0 0-6 6v108a6 6 0 0 0 6 6h23" stroke="#3a414a" fill="none"/><g><use xlink:href="#i" transform="matrix(1,0,0,1,2384.7489597915537,1725) translate(7.222222222222221 32.77777777777778)"/><use xlink:href="#j" transform="matrix(1,0,0,1,2384.7489597915537,1725) translate(22.22222222222222 32.77777777777778)"/><use xlink:href="#k" transform="matrix(1,0,0,1,2384.7489597915537,1725) translate(22.22222222222222 59.44444444444445)"/><use xlink:href="#i" transform="matrix(1,0,0,1,2384.7489597915537,1725) translate(7.222222222222221 86.11111111111111)"/><use xlink:href="#l" transform="matrix(1,0,0,1,2384.7489597915537,1725) translate(22.22222222222222 86.11111111111111)"/></g><path d="M1820.5 1451.4c0 .83-.68 1.5-1.5 1.5-.83 0-1.5-.67-1.5-1.5s.67-1.5 1.5-1.5c.82 0 1.5.67 1.5 1.5zm6-.02c0 .83-.68 1.5-1.5 1.5-.84 0-1.5-.67-1.5-1.5s.66-1.5 1.5-1.5c.82 0 1.5.67 1.5 1.5zm5.98 0c0 .8-.67 1.5-1.5 1.5-.82 0-1.5-.7-1.5-1.5 0-.84.68-1.5 1.5-1.5.83 0 1.5.66 1.5 1.5zm6-.03c0 .83-.67 1.5-1.5 1.5s-1.5-.67-1.5-1.5.67-1.5 1.5-1.5 1.5.67 1.5 1.5zm6 0c0 .8-.68 1.5-1.5 1.5-.84 0-1.5-.7-1.5-1.5 0-.84.66-1.5 1.5-1.5.82 0 1.5.66 1.5 1.5zm6-.03c0 .83-.68 1.5-1.5 1.5-.84 0-1.5-.67-1.5-1.5s.66-1.5 1.5-1.5c.82 0 1.5.67 1.5 1.5zm5.98-.02c0 .83-.67 1.5-1.5 1.5s-1.5-.67-1.5-1.5c0-.82.67-1.5 1.5-1.5s1.5.68 1.5 1.5zm6 0c0 .82-.67 1.5-1.5 1.5s-1.5-.68-1.5-1.5c0-.84.67-1.5 1.5-1.5s1.5.66 1.5 1.5zm6-.03c0 .83-.68 1.5-1.5 1.5-.84 0-1.5-.67-1.5-1.5s.66-1.5 1.5-1.5c.82 0 1.5.67 1.5 1.5zm5.98 0c0 .82-.67 1.5-1.5 1.5-.82 0-1.5-.68-1.5-1.5 0-.84.68-1.5 1.5-1.5.83 0 1.5.66 1.5 1.5zm6-.03c0 .83-.67 1.5-1.5 1.5s-1.5-.67-1.5-1.5.67-1.5 1.5-1.5 1.5.67 1.5 1.5zm6 0c0 .82-.68 1.5-1.5 1.5-.84 0-1.5-.68-1.5-1.5 0-.84.66-1.5 1.5-1.5.82 0 1.5.66 1.5 1.5zm6-.03c0 .84-.68 1.5-1.5 1.5-.84 0-1.5-.66-1.5-1.5 0-.82.66-1.5 1.5-1.5.82 0 1.5.68 1.5 1.5zm5.98 0c0 .83-.67 1.5-1.5 1.5s-1.5-.67-1.5-1.5.67-1.5 1.5-1.5 1.5.67 1.5 1.5zm6-.02c0 .83-.68 1.5-1.5 1.5-.83 0-1.5-.67-1.5-1.5s.67-1.5 1.5-1.5c.82 0 1.5.67 1.5 1.5zm6-.02c0 .83-.68 1.5-1.5 1.5-.84 0-1.5-.67-1.5-1.5 0-.82.66-1.5 1.5-1.5.82 0 1.5.68 1.5 1.5zm5.98 0c0 .82-.67 1.5-1.5 1.5-.82 0-1.5-.68-1.5-1.5 0-.84.68-1.5 1.5-1.5.83 0 1.5.66 1.5 1.5zm6-.03c0 .83-.67 1.5-1.5 1.5s-1.5-.67-1.5-1.5c0-.82.67-1.5 1.5-1.5s1.5.68 1.5 1.5zm6 0c0 .82-.68 1.5-1.5 1.5-.83 0-1.5-.68-1.5-1.5 0-.84.67-1.5 1.5-1.5.82 0 1.5.66 1.5 1.5zm6-.03c0 .83-.68 1.5-1.5 1.5-.84 0-1.5-.67-1.5-1.5 0-.82.66-1.5 1.5-1.5.82 0 1.5.68 1.5 1.5zm5.98 0c0 .82-.67 1.5-1.5 1.5s-1.5-.68-1.5-1.5c0-.84.67-1.5 1.5-1.5s1.5.66 1.5 1.5zm6-.03c0 .83-.67 1.5-1.5 1.5s-1.5-.67-1.5-1.5.67-1.5 1.5-1.5 1.5.67 1.5 1.5zm6 0c0 .82-.68 1.5-1.5 1.5-.84 0-1.5-.68-1.5-1.5 0-.84.66-1.5 1.5-1.5.82 0 1.5.66 1.5 1.5zm6-.03c0 .83-.7 1.5-1.5 1.5-.84 0-1.5-.67-1.5-1.5s.66-1.5 1.5-1.5c.8 0 1.5.67 1.5 1.5zm5.98 0c0 .82-.67 1.5-1.5 1.5s-1.5-.68-1.5-1.5c0-.84.67-1.5 1.5-1.5s1.5.66 1.5 1.5zm6-.03c0 .84-.68 1.5-1.5 1.5-.83 0-1.5-.66-1.5-1.5 0-.82.67-1.5 1.5-1.5.82 0 1.5.68 1.5 1.5zm6 0c0 .82-.68 1.5-1.5 1.5-.84 0-1.5-.68-1.5-1.5 0-.83.66-1.5 1.5-1.5.82 0 1.5.67 1.5 1.5zm5.98-.02c0 .83-.67 1.5-1.5 1.5-.82 0-1.5-.67-1.5-1.5s.68-1.5 1.5-1.5c.83 0 1.5.67 1.5 1.5zm6-.02c0 .83-.67 1.5-1.5 1.5s-1.5-.67-1.5-1.5c0-.82.67-1.5 1.5-1.5s1.5.68 1.5 1.5zm6 0c0 .82-.68 1.5-1.5 1.5-.84 0-1.5-.68-1.5-1.5 0-.84.66-1.5 1.5-1.5.82 0 1.5.66 1.5 1.5zm6-.03c0 .83-.68 1.5-1.5 1.5-.84 0-1.5-.67-1.5-1.5s.66-1.5 1.5-1.5c.82 0 1.5.67 1.5 1.5zm5.98 0c0 .82-.67 1.5-1.5 1.5s-1.5-.68-1.5-1.5c0-.84.67-1.5 1.5-1.5s1.5.66 1.5 1.5zm6-.03c0 .83-.68 1.5-1.5 1.5-.83 0-1.5-.67-1.5-1.5s.67-1.5 1.5-1.5c.82 0 1.5.67 1.5 1.5zm6 0c0 .82-.68 1.5-1.5 1.5-.84 0-1.5-.68-1.5-1.5 0-.84.66-1.5 1.5-1.5.82 0 1.5.66 1.5 1.5zm5.98-.03c0 .83-.67 1.5-1.5 1.5s-1.5-.67-1.5-1.5.67-1.5 1.5-1.5 1.5.67 1.5 1.5zm6 0c0 .82-.67 1.5-1.5 1.5s-1.5-.68-1.5-1.5c0-.84.67-1.5 1.5-1.5s1.5.66 1.5 1.5zm6-.03c0 .83-.68 1.5-1.5 1.5-.84 0-1.5-.67-1.5-1.5s.66-1.5 1.5-1.5c.82 0 1.5.67 1.5 1.5zm6 0c0 .8-.68 1.5-1.5 1.5-.84 0-1.5-.7-1.5-1.5 0-.84.66-1.5 1.5-1.5.82 0 1.5.66 1.5 1.5zm5.98-.03c0 .84-.67 1.5-1.5 1.5s-1.5-.66-1.5-1.5c0-.82.67-1.5 1.5-1.5s1.5.68 1.5 1.5zm6 0c0 .82-.68 1.5-1.5 1.5-.83 0-1.5-.68-1.5-1.5 0-.83.67-1.5 1.5-1.5.82 0 1.5.67 1.5 1.5zm6-.02c0 .83-.68 1.5-1.5 1.5-.84 0-1.5-.67-1.5-1.5s.66-1.5 1.5-1.5c.82 0 1.5.67 1.5 1.5zm5.98-.02c0 .83-.67 1.5-1.5 1.5-.82 0-1.5-.67-1.5-1.5s.68-1.5 1.5-1.5c.83 0 1.5.67 1.5 1.5zm6 0c0 .82-.67 1.5-1.5 1.5s-1.5-.68-1.5-1.5c0-.84.67-1.5 1.5-1.5s1.5.66 1.5 1.5zm6-.03c0 .83-.68 1.5-1.5 1.5-.84 0-1.5-.67-1.5-1.5s.66-1.5 1.5-1.5c.82 0 1.5.67 1.5 1.5zm6 0c0 .82-.68 1.5-1.5 1.5-.84 0-1.5-.68-1.5-1.5 0-.84.66-1.5 1.5-1.5.82 0 1.5.66 1.5 1.5zm5.98-.03c0 .83-.67 1.5-1.5 1.5s-1.5-.67-1.5-1.5.67-1.5 1.5-1.5 1.5.67 1.5 1.5zm6 0c0 .82-.68 1.5-1.5 1.5-.83 0-1.5-.68-1.5-1.5 0-.84.67-1.5 1.5-1.5.82 0 1.5.66 1.5 1.5zm6-.03c0 .83-.68 1.5-1.5 1.5-.84 0-1.5-.67-1.5-1.5s.66-1.5 1.5-1.5c.82 0 1.5.67 1.5 1.5zm6 0c0 .8-.7 1.5-1.5 1.5-.84 0-1.5-.7-1.5-1.5 0-.84.66-1.5 1.5-1.5.8 0 1.5.66 1.5 1.5zm5.98-.03c0 .83-.67 1.5-1.5 1.5s-1.5-.67-1.5-1.5.67-1.5 1.5-1.5 1.5.67 1.5 1.5zm6-.02c0 .83-.68 1.5-1.5 1.5-.83 0-1.5-.67-1.5-1.5 0-.82.67-1.5 1.5-1.5.82 0 1.5.68 1.5 1.5zm6 0c0 .82-.68 1.5-1.5 1.5-.84 0-1.5-.68-1.5-1.5 0-.84.66-1.5 1.5-1.5.82 0 1.5.66 1.5 1.5zm5.98-.03c0 .82-.67 1.5-1.5 1.5s-1.5-.68-1.5-1.5c0-.83.67-1.5 1.5-1.5s1.5.67 1.5 1.5zm6-.02c0 .83-.67 1.5-1.5 1.5s-1.5-.67-1.5-1.5.67-1.5 1.5-1.5 1.5.67 1.5 1.5zm6-.02c0 .83-.68 1.5-1.5 1.5-.84 0-1.5-.67-1.5-1.5s.66-1.5 1.5-1.5c.82 0 1.5.67 1.5 1.5zm6 0c0 .82-.7 1.5-1.5 1.5-.84 0-1.5-.68-1.5-1.5 0-.84.66-1.5 1.5-1.5.8 0 1.5.66 1.5 1.5zm5.98-.03c0 .83-.67 1.5-1.5 1.5s-1.5-.67-1.5-1.5.67-1.5 1.5-1.5 1.5.67 1.5 1.5zm6 0c0 .82-.68 1.5-1.5 1.5-.84 0-1.5-.68-1.5-1.5 0-.84.66-1.5 1.5-1.5.82 0 1.5.66 1.5 1.5zm6-.03c0 .83-.68 1.5-1.5 1.5-.84 0-1.5-.67-1.5-1.5s.66-1.5 1.5-1.5c.82 0 1.5.67 1.5 1.5zm5.98 0c0 .8-.67 1.5-1.5 1.5s-1.5-.7-1.5-1.5c0-.84.67-1.5 1.5-1.5s1.5.66 1.5 1.5zm6-.03c0 .83-.67 1.5-1.5 1.5s-1.5-.67-1.5-1.5.67-1.5 1.5-1.5 1.5.67 1.5 1.5zm6-.02c0 .83-.68 1.5-1.5 1.5-.84 0-1.5-.67-1.5-1.5 0-.82.66-1.5 1.5-1.5.82 0 1.5.68 1.5 1.5zm6 0c0 .82-.7 1.5-1.5 1.5-.84 0-1.5-.68-1.5-1.5 0-.84.66-1.5 1.5-1.5.8 0 1.5.66 1.5 1.5zm5.98-.03c0 .83-.67 1.5-1.5 1.5s-1.5-.67-1.5-1.5.67-1.5 1.5-1.5 1.5.67 1.5 1.5zm6 0c0 .82-.68 1.5-1.5 1.5-.83 0-1.5-.68-1.5-1.5 0-.84.67-1.5 1.5-1.5.82 0 1.5.66 1.5 1.5zm6-.03c0 .82-.68 1.5-1.5 1.5-.84 0-1.5-.68-1.5-1.5 0-.84.66-1.5 1.5-1.5.82 0 1.5.66 1.5 1.5zm5.98-.02c0 .83-.67 1.5-1.5 1.5s-1.5-.67-1.5-1.5.67-1.5 1.5-1.5 1.5.67 1.5 1.5zm6-.02c0 .83-.67 1.5-1.5 1.5s-1.5-.67-1.5-1.5.67-1.5 1.5-1.5 1.5.67 1.5 1.5zm6 0c0 .82-.68 1.5-1.5 1.5-.84 0-1.5-.68-1.5-1.5 0-.84.66-1.5 1.5-1.5.82 0 1.5.66 1.5 1.5zm6-.03c0 .83-.7 1.5-1.5 1.5-.84 0-1.5-.67-1.5-1.5s.66-1.5 1.5-1.5c.8 0 1.5.67 1.5 1.5zm5.98 0c0 .8-.67 1.5-1.5 1.5s-1.5-.7-1.5-1.5c0-.84.67-1.5 1.5-1.5s1.5.66 1.5 1.5zm6-.03c0 .83-.68 1.5-1.5 1.5-.83 0-1.5-.67-1.5-1.5s.67-1.5 1.5-1.5c.82 0 1.5.67 1.5 1.5zm6 0c0 .8-.68 1.5-1.5 1.5-.84 0-1.5-.7-1.5-1.5 0-.84.66-1.5 1.5-1.5.82 0 1.5.66 1.5 1.5zm5.98-.03c0 .83-.67 1.5-1.5 1.5-.82 0-1.5-.67-1.5-1.5s.68-1.5 1.5-1.5c.83 0 1.5.67 1.5 1.5zm6-.02c0 .83-.67 1.5-1.5 1.5s-1.5-.67-1.5-1.5c0-.82.67-1.5 1.5-1.5s1.5.68 1.5 1.5zm6 0c0 .82-.68 1.5-1.5 1.5-.84 0-1.5-.68-1.5-1.5 0-.84.66-1.5 1.5-1.5.82 0 1.5.66 1.5 1.5zm6-.03c0 .83-.68 1.5-1.5 1.5-.84 0-1.5-.67-1.5-1.5s.66-1.5 1.5-1.5c.82 0 1.5.67 1.5 1.5zm5.98 0c0 .82-.67 1.5-1.5 1.5s-1.5-.68-1.5-1.5c0-.84.67-1.5 1.5-1.5s1.5.66 1.5 1.5zm6-.03c0 .82-.68 1.5-1.5 1.5-.83 0-1.5-.68-1.5-1.5 0-.84.67-1.5 1.5-1.5.82 0 1.5.66 1.5 1.5zm6-.02c0 .83-.68 1.5-1.5 1.5-.84 0-1.5-.67-1.5-1.5s.66-1.5 1.5-1.5c.82 0 1.5.67 1.5 1.5zm5.98-.02c0 .83-.67 1.5-1.5 1.5-.82 0-1.5-.67-1.5-1.5s.68-1.5 1.5-1.5c.83 0 1.5.67 1.5 1.5zm6 0c0 .8-.67 1.5-1.5 1.5s-1.5-.7-1.5-1.5c0-.84.67-1.5 1.5-1.5s1.5.66 1.5 1.5zm6-.03c0 .83-.68 1.5-1.5 1.5-.84 0-1.5-.67-1.5-1.5s.66-1.5 1.5-1.5c.82 0 1.5.67 1.5 1.5zm6-.02c0 .84-.68 1.52-1.5 1.52-.84 0-1.5-.68-1.5-1.5 0-.83.66-1.5 1.5-1.5.82 0 1.5.67 1.5 1.5zm5.98 0c0 .83-.67 1.5-1.5 1.5s-1.5-.67-1.5-1.5.67-1.5 1.5-1.5 1.5.67 1.5 1.5zm6-.02c0 .83-.68 1.5-1.5 1.5-.83 0-1.5-.67-1.5-1.5 0-.82.67-1.5 1.5-1.5.82 0 1.5.68 1.5 1.5zm6 0c0 .82-.68 1.5-1.5 1.5-.84 0-1.5-.68-1.5-1.5 0-.84.66-1.5 1.5-1.5.82 0 1.5.66 1.5 1.5z" fill="#3a414a"/><path d="M1803.23 1451.44l14.25-4.67.03 9.27zM2356.27 1450l-14.25 4.68-.03-9.27z" stroke="#3a414a" stroke-width="3" fill="#3a414a"/><path d="M1820.5 1691.4c0 .83-.68 1.5-1.5 1.5-.83 0-1.5-.67-1.5-1.5s.67-1.5 1.5-1.5c.82 0 1.5.67 1.5 1.5zm6-.02c0 .83-.68 1.5-1.5 1.5-.84 0-1.5-.67-1.5-1.5s.66-1.5 1.5-1.5c.82 0 1.5.67 1.5 1.5zm5.98 0c0 .8-.67 1.5-1.5 1.5-.82 0-1.5-.7-1.5-1.5 0-.84.68-1.5 1.5-1.5.83 0 1.5.66 1.5 1.5zm6-.03c0 .83-.67 1.5-1.5 1.5s-1.5-.67-1.5-1.5.67-1.5 1.5-1.5 1.5.67 1.5 1.5zm6 0c0 .8-.68 1.5-1.5 1.5-.84 0-1.5-.7-1.5-1.5 0-.84.66-1.5 1.5-1.5.82 0 1.5.66 1.5 1.5zm6-.03c0 .83-.68 1.5-1.5 1.5-.84 0-1.5-.67-1.5-1.5s.66-1.5 1.5-1.5c.82 0 1.5.67 1.5 1.5zm5.98-.02c0 .83-.67 1.5-1.5 1.5s-1.5-.67-1.5-1.5c0-.82.67-1.5 1.5-1.5s1.5.68 1.5 1.5zm6 0c0 .82-.67 1.5-1.5 1.5s-1.5-.68-1.5-1.5c0-.84.67-1.5 1.5-1.5s1.5.66 1.5 1.5zm6-.03c0 .83-.68 1.5-1.5 1.5-.84 0-1.5-.67-1.5-1.5s.66-1.5 1.5-1.5c.82 0 1.5.67 1.5 1.5zm5.98 0c0 .82-.67 1.5-1.5 1.5-.82 0-1.5-.68-1.5-1.5 0-.84.68-1.5 1.5-1.5.83 0 1.5.66 1.5 1.5zm6-.03c0 .83-.67 1.5-1.5 1.5s-1.5-.67-1.5-1.5.67-1.5 1.5-1.5 1.5.67 1.5 1.5zm6 0c0 .82-.68 1.5-1.5 1.5-.84 0-1.5-.68-1.5-1.5 0-.84.66-1.5 1.5-1.5.82 0 1.5.66 1.5 1.5zm6-.03c0 .84-.68 1.5-1.5 1.5-.84 0-1.5-.66-1.5-1.5 0-.82.66-1.5 1.5-1.5.82 0 1.5.68 1.5 1.5zm5.98 0c0 .83-.67 1.5-1.5 1.5s-1.5-.67-1.5-1.5.67-1.5 1.5-1.5 1.5.67 1.5 1.5zm6-.02c0 .83-.68 1.5-1.5 1.5-.83 0-1.5-.67-1.5-1.5s.67-1.5 1.5-1.5c.82 0 1.5.67 1.5 1.5zm6-.02c0 .83-.68 1.5-1.5 1.5-.84 0-1.5-.67-1.5-1.5 0-.82.66-1.5 1.5-1.5.82 0 1.5.68 1.5 1.5zm5.98 0c0 .82-.67 1.5-1.5 1.5-.82 0-1.5-.68-1.5-1.5 0-.84.68-1.5 1.5-1.5.83 0 1.5.66 1.5 1.5zm6-.03c0 .83-.67 1.5-1.5 1.5s-1.5-.67-1.5-1.5c0-.82.67-1.5 1.5-1.5s1.5.68 1.5 1.5zm6 0c0 .82-.68 1.5-1.5 1.5-.83 0-1.5-.68-1.5-1.5 0-.84.67-1.5 1.5-1.5.82 0 1.5.66 1.5 1.5zm6-.03c0 .83-.68 1.5-1.5 1.5-.84 0-1.5-.67-1.5-1.5 0-.82.66-1.5 1.5-1.5.82 0 1.5.68 1.5 1.5zm5.98 0c0 .82-.67 1.5-1.5 1.5s-1.5-.68-1.5-1.5c0-.84.67-1.5 1.5-1.5s1.5.66 1.5 1.5zm6-.03c0 .83-.67 1.5-1.5 1.5s-1.5-.67-1.5-1.5.67-1.5 1.5-1.5 1.5.67 1.5 1.5zm6 0c0 .82-.68 1.5-1.5 1.5-.84 0-1.5-.68-1.5-1.5 0-.84.66-1.5 1.5-1.5.82 0 1.5.66 1.5 1.5zm6-.03c0 .83-.7 1.5-1.5 1.5-.84 0-1.5-.67-1.5-1.5s.66-1.5 1.5-1.5c.8 0 1.5.67 1.5 1.5zm5.98 0c0 .82-.67 1.5-1.5 1.5s-1.5-.68-1.5-1.5c0-.84.67-1.5 1.5-1.5s1.5.66 1.5 1.5zm6-.03c0 .84-.68 1.5-1.5 1.5-.83 0-1.5-.66-1.5-1.5 0-.82.67-1.5 1.5-1.5.82 0 1.5.68 1.5 1.5zm6 0c0 .82-.68 1.5-1.5 1.5-.84 0-1.5-.68-1.5-1.5 0-.83.66-1.5 1.5-1.5.82 0 1.5.67 1.5 1.5zm5.98-.02c0 .83-.67 1.5-1.5 1.5-.82 0-1.5-.67-1.5-1.5s.68-1.5 1.5-1.5c.83 0 1.5.67 1.5 1.5zm6-.02c0 .83-.67 1.5-1.5 1.5s-1.5-.67-1.5-1.5c0-.82.67-1.5 1.5-1.5s1.5.68 1.5 1.5zm6 0c0 .82-.68 1.5-1.5 1.5-.84 0-1.5-.68-1.5-1.5 0-.84.66-1.5 1.5-1.5.82 0 1.5.66 1.5 1.5zm6-.03c0 .83-.68 1.5-1.5 1.5-.84 0-1.5-.67-1.5-1.5s.66-1.5 1.5-1.5c.82 0 1.5.67 1.5 1.5zm5.98 0c0 .82-.67 1.5-1.5 1.5s-1.5-.68-1.5-1.5c0-.84.67-1.5 1.5-1.5s1.5.66 1.5 1.5zm6-.03c0 .83-.68 1.5-1.5 1.5-.83 0-1.5-.67-1.5-1.5s.67-1.5 1.5-1.5c.82 0 1.5.67 1.5 1.5zm6 0c0 .82-.68 1.5-1.5 1.5-.84 0-1.5-.68-1.5-1.5 0-.84.66-1.5 1.5-1.5.82 0 1.5.66 1.5 1.5zm5.98-.03c0 .83-.67 1.5-1.5 1.5s-1.5-.67-1.5-1.5.67-1.5 1.5-1.5 1.5.67 1.5 1.5zm6 0c0 .82-.67 1.5-1.5 1.5s-1.5-.68-1.5-1.5c0-.84.67-1.5 1.5-1.5s1.5.66 1.5 1.5zm6-.03c0 .83-.68 1.5-1.5 1.5-.84 0-1.5-.67-1.5-1.5s.66-1.5 1.5-1.5c.82 0 1.5.67 1.5 1.5zm6 0c0 .8-.68 1.5-1.5 1.5-.84 0-1.5-.7-1.5-1.5 0-.84.66-1.5 1.5-1.5.82 0 1.5.66 1.5 1.5zm5.98-.03c0 .84-.67 1.5-1.5 1.5s-1.5-.66-1.5-1.5c0-.82.67-1.5 1.5-1.5s1.5.68 1.5 1.5zm6 0c0 .82-.68 1.5-1.5 1.5-.83 0-1.5-.68-1.5-1.5 0-.83.67-1.5 1.5-1.5.82 0 1.5.67 1.5 1.5zm6-.02c0 .83-.68 1.5-1.5 1.5-.84 0-1.5-.67-1.5-1.5s.66-1.5 1.5-1.5c.82 0 1.5.67 1.5 1.5zm5.98-.02c0 .83-.67 1.5-1.5 1.5-.82 0-1.5-.67-1.5-1.5s.68-1.5 1.5-1.5c.83 0 1.5.67 1.5 1.5zm6 0c0 .82-.67 1.5-1.5 1.5s-1.5-.68-1.5-1.5c0-.84.67-1.5 1.5-1.5s1.5.66 1.5 1.5zm6-.03c0 .83-.68 1.5-1.5 1.5-.84 0-1.5-.67-1.5-1.5s.66-1.5 1.5-1.5c.82 0 1.5.67 1.5 1.5zm6 0c0 .82-.68 1.5-1.5 1.5-.84 0-1.5-.68-1.5-1.5 0-.84.66-1.5 1.5-1.5.82 0 1.5.66 1.5 1.5zm5.98-.03c0 .83-.67 1.5-1.5 1.5s-1.5-.67-1.5-1.5.67-1.5 1.5-1.5 1.5.67 1.5 1.5zm6 0c0 .82-.68 1.5-1.5 1.5-.83 0-1.5-.68-1.5-1.5 0-.84.67-1.5 1.5-1.5.82 0 1.5.66 1.5 1.5zm6-.03c0 .83-.68 1.5-1.5 1.5-.84 0-1.5-.67-1.5-1.5s.66-1.5 1.5-1.5c.82 0 1.5.67 1.5 1.5zm6 0c0 .8-.7 1.5-1.5 1.5-.84 0-1.5-.7-1.5-1.5 0-.84.66-1.5 1.5-1.5.8 0 1.5.66 1.5 1.5zm5.98-.03c0 .83-.67 1.5-1.5 1.5s-1.5-.67-1.5-1.5.67-1.5 1.5-1.5 1.5.67 1.5 1.5zm6-.02c0 .83-.68 1.5-1.5 1.5-.83 0-1.5-.67-1.5-1.5 0-.82.67-1.5 1.5-1.5.82 0 1.5.68 1.5 1.5zm6 0c0 .82-.68 1.5-1.5 1.5-.84 0-1.5-.68-1.5-1.5 0-.84.66-1.5 1.5-1.5.82 0 1.5.66 1.5 1.5zm5.98-.03c0 .82-.67 1.5-1.5 1.5s-1.5-.68-1.5-1.5c0-.83.67-1.5 1.5-1.5s1.5.67 1.5 1.5zm6-.02c0 .83-.67 1.5-1.5 1.5s-1.5-.67-1.5-1.5.67-1.5 1.5-1.5 1.5.67 1.5 1.5zm6-.02c0 .83-.68 1.5-1.5 1.5-.84 0-1.5-.67-1.5-1.5s.66-1.5 1.5-1.5c.82 0 1.5.67 1.5 1.5zm6 0c0 .82-.7 1.5-1.5 1.5-.84 0-1.5-.68-1.5-1.5 0-.84.66-1.5 1.5-1.5.8 0 1.5.66 1.5 1.5zm5.98-.03c0 .83-.67 1.5-1.5 1.5s-1.5-.67-1.5-1.5.67-1.5 1.5-1.5 1.5.67 1.5 1.5zm6 0c0 .82-.68 1.5-1.5 1.5-.84 0-1.5-.68-1.5-1.5 0-.84.66-1.5 1.5-1.5.82 0 1.5.66 1.5 1.5zm6-.03c0 .83-.68 1.5-1.5 1.5-.84 0-1.5-.67-1.5-1.5s.66-1.5 1.5-1.5c.82 0 1.5.67 1.5 1.5zm5.98 0c0 .8-.67 1.5-1.5 1.5s-1.5-.7-1.5-1.5c0-.84.67-1.5 1.5-1.5s1.5.66 1.5 1.5zm6-.03c0 .83-.67 1.5-1.5 1.5s-1.5-.67-1.5-1.5.67-1.5 1.5-1.5 1.5.67 1.5 1.5zm6-.02c0 .83-.68 1.5-1.5 1.5-.84 0-1.5-.67-1.5-1.5 0-.82.66-1.5 1.5-1.5.82 0 1.5.68 1.5 1.5zm6 0c0 .82-.7 1.5-1.5 1.5-.84 0-1.5-.68-1.5-1.5 0-.84.66-1.5 1.5-1.5.8 0 1.5.66 1.5 1.5zm5.98-.03c0 .83-.67 1.5-1.5 1.5s-1.5-.67-1.5-1.5.67-1.5 1.5-1.5 1.5.67 1.5 1.5zm6 0c0 .82-.68 1.5-1.5 1.5-.83 0-1.5-.68-1.5-1.5 0-.84.67-1.5 1.5-1.5.82 0 1.5.66 1.5 1.5zm6-.03c0 .82-.68 1.5-1.5 1.5-.84 0-1.5-.68-1.5-1.5 0-.84.66-1.5 1.5-1.5.82 0 1.5.66 1.5 1.5zm5.98-.02c0 .83-.67 1.5-1.5 1.5s-1.5-.67-1.5-1.5.67-1.5 1.5-1.5 1.5.67 1.5 1.5zm6-.02c0 .83-.67 1.5-1.5 1.5s-1.5-.67-1.5-1.5.67-1.5 1.5-1.5 1.5.67 1.5 1.5zm6 0c0 .82-.68 1.5-1.5 1.5-.84 0-1.5-.68-1.5-1.5 0-.84.66-1.5 1.5-1.5.82 0 1.5.66 1.5 1.5zm6-.03c0 .83-.7 1.5-1.5 1.5-.84 0-1.5-.67-1.5-1.5s.66-1.5 1.5-1.5c.8 0 1.5.67 1.5 1.5zm5.98 0c0 .8-.67 1.5-1.5 1.5s-1.5-.7-1.5-1.5c0-.84.67-1.5 1.5-1.5s1.5.66 1.5 1.5zm6-.03c0 .83-.68 1.5-1.5 1.5-.83 0-1.5-.67-1.5-1.5s.67-1.5 1.5-1.5c.82 0 1.5.67 1.5 1.5zm6 0c0 .8-.68 1.5-1.5 1.5-.84 0-1.5-.7-1.5-1.5 0-.84.66-1.5 1.5-1.5.82 0 1.5.66 1.5 1.5zm5.98-.03c0 .83-.67 1.5-1.5 1.5-.82 0-1.5-.67-1.5-1.5s.68-1.5 1.5-1.5c.83 0 1.5.67 1.5 1.5zm6-.02c0 .83-.67 1.5-1.5 1.5s-1.5-.67-1.5-1.5c0-.82.67-1.5 1.5-1.5s1.5.68 1.5 1.5zm6 0c0 .82-.68 1.5-1.5 1.5-.84 0-1.5-.68-1.5-1.5 0-.84.66-1.5 1.5-1.5.82 0 1.5.66 1.5 1.5zm6-.03c0 .83-.68 1.5-1.5 1.5-.84 0-1.5-.67-1.5-1.5s.66-1.5 1.5-1.5c.82 0 1.5.67 1.5 1.5zm5.98 0c0 .82-.67 1.5-1.5 1.5s-1.5-.68-1.5-1.5c0-.84.67-1.5 1.5-1.5s1.5.66 1.5 1.5zm6-.03c0 .82-.68 1.5-1.5 1.5-.83 0-1.5-.68-1.5-1.5 0-.84.67-1.5 1.5-1.5.82 0 1.5.66 1.5 1.5zm6-.02c0 .83-.68 1.5-1.5 1.5-.84 0-1.5-.67-1.5-1.5s.66-1.5 1.5-1.5c.82 0 1.5.67 1.5 1.5zm5.98-.02c0 .83-.67 1.5-1.5 1.5-.82 0-1.5-.67-1.5-1.5s.68-1.5 1.5-1.5c.83 0 1.5.67 1.5 1.5zm6 0c0 .8-.67 1.5-1.5 1.5s-1.5-.7-1.5-1.5c0-.84.67-1.5 1.5-1.5s1.5.66 1.5 1.5zm6-.03c0 .83-.68 1.5-1.5 1.5-.84 0-1.5-.67-1.5-1.5s.66-1.5 1.5-1.5c.82 0 1.5.67 1.5 1.5zm6-.02c0 .84-.68 1.52-1.5 1.52-.84 0-1.5-.68-1.5-1.5 0-.83.66-1.5 1.5-1.5.82 0 1.5.67 1.5 1.5zm5.98 0c0 .83-.67 1.5-1.5 1.5s-1.5-.67-1.5-1.5.67-1.5 1.5-1.5 1.5.67 1.5 1.5zm6-.02c0 .83-.68 1.5-1.5 1.5-.83 0-1.5-.67-1.5-1.5 0-.82.67-1.5 1.5-1.5.82 0 1.5.68 1.5 1.5zm6 0c0 .82-.68 1.5-1.5 1.5-.84 0-1.5-.68-1.5-1.5 0-.84.66-1.5 1.5-1.5.82 0 1.5.66 1.5 1.5z" fill="#3a414a"/><path d="M1803.23 1691.44l14.25-4.67.03 9.27zM2356.27 1690l-14.25 4.68-.03-9.27z" stroke="#3a414a" stroke-width="3" fill="#3a414a"/><defs><path fill="#3a414a" d="M127-220V0H93v-220H8v-28h204v28h-85" id="v"/><path fill="#3a414a" d="M24-231v-30h32v30H24zM24 0v-190h32V0H24" id="w"/><path fill="#3a414a" d="M96-169c-40 0-48 33-48 73s9 75 48 75c24 0 41-14 43-38l32 2c-6 37-31 61-74 61-59 0-76-41-82-99-10-93 101-131 147-64 4 7 5 14 7 22l-32 3c-4-21-16-35-41-35" id="x"/><path fill="#3a414a" d="M143 0L79-87 56-68V0H24v-261h32v163l83-92h37l-77 82L181 0h-38" id="y"/><path fill="#3a414a" d="M100-194c63 0 86 42 84 106H49c0 40 14 67 53 68 26 1 43-12 49-29l28 8c-11 28-37 45-77 45C44 4 14-33 15-96c1-61 26-98 85-98zm52 81c6-60-76-77-97-28-3 7-6 17-6 28h103" id="z"/><path fill="#3a414a" d="M59-47c-2 24 18 29 38 22v24C64 9 27 4 27-40v-127H5v-23h24l9-43h21v43h35v23H59v120" id="A"/><path fill="#3a414a" d="M185-189c-5-48-123-54-124 2 14 75 158 14 163 119 3 78-121 87-175 55-17-10-28-26-33-46l33-7c5 56 141 63 141-1 0-78-155-14-162-118-5-82 145-84 179-34 5 7 8 16 11 25" id="B"/><path fill="#3a414a" d="M114-163C36-179 61-72 57 0H25l-1-190h30c1 12-1 29 2 39 6-27 23-49 58-41v29" id="C"/><path fill="#3a414a" d="M108 0H70L1-190h34L89-25l56-165h34" id="D"/><g id="a"><use transform="matrix(0.06172839506172839,0,0,0.06172839506172839,0,0)" xlink:href="#v"/><use transform="matrix(0.06172839506172839,0,0,0.06172839506172839,12.716049382716047,0)" xlink:href="#w"/><use transform="matrix(0.06172839506172839,0,0,0.06172839506172839,17.592592592592588,0)" xlink:href="#x"/><use transform="matrix(0.06172839506172839,0,0,0.06172839506172839,28.7037037037037,0)" xlink:href="#y"/><use transform="matrix(0.06172839506172839,0,0,0.06172839506172839,39.81481481481481,0)" xlink:href="#z"/><use transform="matrix(0.06172839506172839,0,0,0.06172839506172839,52.16049382716049,0)" xlink:href="#A"/><use transform="matrix(0.06172839506172839,0,0,0.06172839506172839,58.33333333333333,0)" xlink:href="#B"/><use transform="matrix(0.06172839506172839,0,0,0.06172839506172839,73.14814814814814,0)" xlink:href="#z"/><use transform="matrix(0.06172839506172839,0,0,0.06172839506172839,85.49382716049382,0)" xlink:href="#C"/><use transform="matrix(0.06172839506172839,0,0,0.06172839506172839,92.8395061728395,0)" xlink:href="#D"/><use transform="matrix(0.06172839506172839,0,0,0.06172839506172839,103.95061728395062,0)" xlink:href="#w"/><use transform="matrix(0.06172839506172839,0,0,0.06172839506172839,108.82716049382717,0)" xlink:href="#x"/><use transform="matrix(0.06172839506172839,0,0,0.06172839506172839,119.93827160493828,0)" xlink:href="#z"/></g><path fill="#3a414a" d="M205 0l-28-72H64L36 0H1l101-248h38L239 0h-34zm-38-99l-47-123c-12 45-31 82-46 123h93" id="E"/><path fill="#3a414a" d="M100-194c62-1 85 37 85 99 1 63-27 99-86 99S16-35 15-95c0-66 28-99 85-99zM99-20c44 1 53-31 53-75 0-43-8-75-51-75s-53 32-53 75 10 74 51 75" id="F"/><path fill="#3a414a" d="M84 4C-5 8 30-112 23-190h32v120c0 31 7 50 39 49 72-2 45-101 50-169h31l1 190h-30c-1-10 1-25-2-33-11 22-28 36-60 37" id="G"/><path fill="#3a414a" d="M117-194c89-4 53 116 60 194h-32v-121c0-31-8-49-39-48C34-167 62-67 57 0H25l-1-190h30c1 10-1 24 2 32 11-22 29-35 61-36" id="H"/><path fill="#3a414a" d="M177-190C167-65 218 103 67 71c-23-6-38-20-44-43l32-5c15 47 100 32 89-28v-30C133-14 115 1 83 1 29 1 15-40 15-95c0-56 16-97 71-98 29-1 48 16 59 35 1-10 0-23 2-32h30zM94-22c36 0 50-32 50-73 0-42-14-75-50-75-39 0-46 34-46 75s6 73 46 73" id="I"/><g id="b"><use transform="matrix(0.06172839506172839,0,0,0.06172839506172839,0,0)" xlink:href="#E"/><use transform="matrix(0.06172839506172839,0,0,0.06172839506172839,14.814814814814813,0)" xlink:href="#x"/><use transform="matrix(0.06172839506172839,0,0,0.06172839506172839,25.925925925925924,0)" xlink:href="#x"/><use transform="matrix(0.06172839506172839,0,0,0.06172839506172839,37.03703703703704,0)" xlink:href="#F"/><use transform="matrix(0.06172839506172839,0,0,0.06172839506172839,49.382716049382715,0)" xlink:href="#G"/><use transform="matrix(0.06172839506172839,0,0,0.06172839506172839,61.72839506172839,0)" xlink:href="#H"/><use transform="matrix(0.06172839506172839,0,0,0.06172839506172839,74.07407407407408,0)" xlink:href="#A"/><use transform="matrix(0.06172839506172839,0,0,0.06172839506172839,80.24691358024691,0)" xlink:href="#w"/><use transform="matrix(0.06172839506172839,0,0,0.06172839506172839,85.12345679012346,0)" xlink:href="#H"/><use transform="matrix(0.06172839506172839,0,0,0.06172839506172839,97.46913580246914,0)" xlink:href="#I"/><use transform="matrix(0.06172839506172839,0,0,0.06172839506172839,109.81481481481482,0)" xlink:href="#B"/><use transform="matrix(0.06172839506172839,0,0,0.06172839506172839,124.62962962962963,0)" xlink:href="#z"/><use transform="matrix(0.06172839506172839,0,0,0.06172839506172839,136.97530864197532,0)" xlink:href="#C"/><use transform="matrix(0.06172839506172839,0,0,0.06172839506172839,144.320987654321,0)" xlink:href="#D"/><use transform="matrix(0.06172839506172839,0,0,0.06172839506172839,155.4320987654321,0)" xlink:href="#w"/><use transform="matrix(0.06172839506172839,0,0,0.06172839506172839,160.30864197530863,0)" xlink:href="#x"/><use transform="matrix(0.06172839506172839,0,0,0.06172839506172839,171.41975308641975,0)" xlink:href="#z"/></g><path fill="#3a414a" d="M30 0v-248h187v28H63v79h144v27H63v87h162V0H30" id="J"/><path fill="#3a414a" d="M210-169c-67 3-38 105-44 169h-31v-121c0-29-5-50-35-48C34-165 62-65 56 0H25l-1-190h30c1 10-1 24 2 32 10-44 99-50 107 0 11-21 27-35 58-36 85-2 47 119 55 194h-31v-121c0-29-5-49-35-48" id="K"/><path fill="#3a414a" d="M115-194c55 1 70 41 70 98S169 2 115 4C84 4 66-9 55-30l1 105H24l-1-265h31l2 30c10-21 28-34 59-34zm-8 174c40 0 45-34 45-75s-6-73-45-74c-42 0-51 32-51 76 0 43 10 73 51 73" id="L"/><path fill="#3a414a" d="M24 0v-261h32V0H24" id="M"/><path fill="#3a414a" d="M179-190L93 31C79 59 56 82 12 73V49c39 6 53-20 64-50L1-190h34L92-34l54-156h33" id="N"/><g id="c"><use transform="matrix(0.06172839506172839,0,0,0.06172839506172839,0,0)" xlink:href="#J"/><use transform="matrix(0.06172839506172839,0,0,0.06172839506172839,14.814814814814813,0)" xlink:href="#K"/><use transform="matrix(0.06172839506172839,0,0,0.06172839506172839,33.2716049382716,0)" xlink:href="#L"/><use transform="matrix(0.06172839506172839,0,0,0.06172839506172839,45.61728395061728,0)" xlink:href="#M"/><use transform="matrix(0.06172839506172839,0,0,0.06172839506172839,50.49382716049382,0)" xlink:href="#F"/><use transform="matrix(0.06172839506172839,0,0,0.06172839506172839,62.8395061728395,0)" xlink:href="#N"/><use transform="matrix(0.06172839506172839,0,0,0.06172839506172839,73.9506172839506,0)" xlink:href="#z"/><use transform="matrix(0.06172839506172839,0,0,0.06172839506172839,86.29629629629629,0)" xlink:href="#z"/></g><g id="d"><use transform="matrix(0.06172839506172839,0,0,0.06172839506172839,0,0)" xlink:href="#E"/><use transform="matrix(0.06172839506172839,0,0,0.06172839506172839,14.814814814814813,0)" xlink:href="#x"/><use transform="matrix(0.06172839506172839,0,0,0.06172839506172839,25.925925925925924,0)" xlink:href="#x"/><use transform="matrix(0.06172839506172839,0,0,0.06172839506172839,37.03703703703704,0)" xlink:href="#F"/><use transform="matrix(0.06172839506172839,0,0,0.06172839506172839,49.382716049382715,0)" xlink:href="#G"/><use transform="matrix(0.06172839506172839,0,0,0.06172839506172839,61.72839506172839,0)" xlink:href="#H"/><use transform="matrix(0.06172839506172839,0,0,0.06172839506172839,74.07407407407408,0)" xlink:href="#A"/></g><path fill="#333" d="M114-157C55-157 80-60 75 0H25v-261h50l-1 109c12-26 28-41 61-42 86-1 58 113 63 194h-50c-7-57 23-157-34-157" id="O"/><path fill="#333" d="M133-34C117-15 103 5 69 4 32 3 11-16 11-54c-1-60 55-63 116-61 1-26-3-47-28-47-18 1-26 9-28 27l-52-2c7-38 36-58 82-57s74 22 75 68l1 82c-1 14 12 18 25 15v27c-30 8-71 5-69-32zm-48 3c29 0 43-24 42-57-32 0-66-3-65 30 0 17 8 27 23 27" id="P"/><path fill="#333" d="M137-138c1-29-70-34-71-4 15 46 118 7 119 86 1 83-164 76-172 9l43-7c4 19 20 25 44 25 33 8 57-30 24-41C81-84 22-81 20-136c-2-80 154-74 161-7" id="Q"/><path fill="#333" d="M-4 44V30h207v14H-4" id="R"/><path fill="#333" d="M110-194c64 0 96 36 96 99 0 64-35 99-97 99-61 0-95-36-95-99 0-62 34-99 96-99zm-1 164c35 0 45-28 45-65 0-40-10-65-43-65-34 0-45 26-45 65 0 36 10 65 43 65" id="S"/><path fill="#333" d="M135-194c87-1 58 113 63 194h-50c-7-57 23-157-34-157-59 0-34 97-39 157H25l-1-190h47c2 12-1 28 3 38 12-26 28-41 61-42" id="T"/><path fill="#333" d="M185-48c-13 30-37 53-82 52C43 2 14-33 14-96s30-98 90-98c62 0 83 45 84 108H66c0 31 8 55 39 56 18 0 30-7 34-22zm-45-69c5-46-57-63-70-21-2 6-4 13-4 21h74" id="U"/><g id="e"><use transform="matrix(0.04938271604938272,0,0,0.04938271604938272,0,0)" xlink:href="#O"/><use transform="matrix(0.04938271604938272,0,0,0.04938271604938272,10.814814814814815,0)" xlink:href="#P"/><use transform="matrix(0.04938271604938272,0,0,0.04938271604938272,20.69135802469136,0)" xlink:href="#Q"/><use transform="matrix(0.04938271604938272,0,0,0.04938271604938272,30.567901234567906,0)" xlink:href="#R"/><use transform="matrix(0.04938271604938272,0,0,0.04938271604938272,40.44444444444445,0)" xlink:href="#S"/><use transform="matrix(0.04938271604938272,0,0,0.04938271604938272,51.25925925925927,0)" xlink:href="#T"/><use transform="matrix(0.04938271604938272,0,0,0.04938271604938272,62.074074074074076,0)" xlink:href="#U"/></g><path fill="#3a414a" d="M115-194c53 0 69 39 70 98 0 66-23 100-70 100C84 3 66-7 56-30L54 0H23l1-261h32v101c10-23 28-34 59-34zm-8 174c40 0 45-34 45-75 0-40-5-75-45-74-42 0-51 32-51 76 0 43 10 73 51 73" id="V"/><path fill="#3a414a" d="M141-36C126-15 110 5 73 4 37 3 15-17 15-53c-1-64 63-63 125-63 3-35-9-54-41-54-24 1-41 7-42 31l-33-3c5-37 33-52 76-52 45 0 72 20 72 64v82c-1 20 7 32 28 27v20c-31 9-61-2-59-35zM48-53c0 20 12 33 32 33 41-3 63-29 60-74-43 2-92-5-92 41" id="W"/><g id="f"><use transform="matrix(0.06172839506172839,0,0,0.06172839506172839,0,0)" xlink:href="#V"/><use transform="matrix(0.06172839506172839,0,0,0.06172839506172839,12.345679012345679,0)" xlink:href="#W"/><use transform="matrix(0.06172839506172839,0,0,0.06172839506172839,24.691358024691358,0)" xlink:href="#M"/><use transform="matrix(0.06172839506172839,0,0,0.06172839506172839,29.5679012345679,0)" xlink:href="#W"/><use transform="matrix(0.06172839506172839,0,0,0.06172839506172839,41.913580246913575,0)" xlink:href="#H"/><use transform="matrix(0.06172839506172839,0,0,0.06172839506172839,54.25925925925925,0)" xlink:href="#x"/><use transform="matrix(0.06172839506172839,0,0,0.06172839506172839,65.37037037037037,0)" xlink:href="#z"/></g><path fill="#333" d="M220-157c-53 9-28 100-34 157h-49v-107c1-27-5-49-29-50C55-147 81-57 75 0H25l-1-190h47c2 12-1 28 3 38 10-53 101-56 108 0 13-22 24-43 59-42 82 1 51 116 57 194h-49v-107c-1-25-5-48-29-50" id="X"/><path fill="#333" d="M123 10C108 53 80 86 19 72V37c35 8 53-11 59-39L3-190h52l48 148c12-52 28-100 44-148h51" id="Y"/><g id="g"><use transform="matrix(0.04938271604938272,0,0,0.04938271604938272,0,0)" xlink:href="#O"/><use transform="matrix(0.04938271604938272,0,0,0.04938271604938272,10.814814814814815,0)" xlink:href="#P"/><use transform="matrix(0.04938271604938272,0,0,0.04938271604938272,20.69135802469136,0)" xlink:href="#Q"/><use transform="matrix(0.04938271604938272,0,0,0.04938271604938272,30.567901234567906,0)" xlink:href="#R"/><use transform="matrix(0.04938271604938272,0,0,0.04938271604938272,40.44444444444445,0)" xlink:href="#X"/><use transform="matrix(0.04938271604938272,0,0,0.04938271604938272,56.24691358024692,0)" xlink:href="#P"/><use transform="matrix(0.04938271604938272,0,0,0.04938271604938272,66.12345679012347,0)" xlink:href="#T"/><use transform="matrix(0.04938271604938272,0,0,0.04938271604938272,76.93827160493828,0)" xlink:href="#Y"/></g><path fill="#3a414a" d="M85-194c31 0 48 13 60 33l-1-100h32l1 261h-30c-2-10 0-23-3-31C134-8 116 4 85 4 32 4 16-35 15-94c0-66 23-100 70-100zm9 24c-40 0-46 34-46 75 0 40 6 74 45 74 42 0 51-32 51-76 0-42-9-74-50-73" id="Z"/><path fill="#3a414a" d="M30 0v-248h33v221h125V0H30" id="aa"/><g id="h"><use transform="matrix(0.06172839506172839,0,0,0.06172839506172839,0,0)" xlink:href="#E"/><use transform="matrix(0.06172839506172839,0,0,0.06172839506172839,14.814814814814813,0)" xlink:href="#G"/><use transform="matrix(0.06172839506172839,0,0,0.06172839506172839,27.160493827160494,0)" xlink:href="#Z"/><use transform="matrix(0.06172839506172839,0,0,0.06172839506172839,39.50617283950617,0)" xlink:href="#w"/><use transform="matrix(0.06172839506172839,0,0,0.06172839506172839,44.382716049382715,0)" xlink:href="#A"/><use transform="matrix(0.06172839506172839,0,0,0.06172839506172839,50.55555555555556,0)" xlink:href="#aa"/><use transform="matrix(0.06172839506172839,0,0,0.06172839506172839,62.901234567901234,0)" xlink:href="#F"/><use transform="matrix(0.06172839506172839,0,0,0.06172839506172839,75.24691358024691,0)" xlink:href="#I"/></g><path fill="#3a414a" d="M62-168c30 0 50 19 50 48S92-70 62-70c-29 0-48-21-48-50s20-48 48-48" id="ab"/><use transform="matrix(0.06172839506172839,0,0,0.06172839506172839,0,0)" xlink:href="#ab" id="i"/><g id="j"><use transform="matrix(0.06172839506172839,0,0,0.06172839506172839,0,0)" xlink:href="#A"/><use transform="matrix(0.06172839506172839,0,0,0.06172839506172839,6.172839506172839,0)" xlink:href="#N"/><use transform="matrix(0.06172839506172839,0,0,0.06172839506172839,17.28395061728395,0)" xlink:href="#L"/><use transform="matrix(0.06172839506172839,0,0,0.06172839506172839,29.629629629629626,0)" xlink:href="#z"/></g><path fill="#3a414a" d="M87 75C49 33 22-17 22-94c0-76 28-126 65-167h31c-38 41-64 92-64 168S80 34 118 75H87" id="ac"/><path fill="#3a414a" d="M206 0h-36l-40-164L89 0H53L-1-190h32L70-26l43-164h34l41 164 42-164h31" id="ad"/><path fill="#3a414a" d="M106-169C34-169 62-67 57 0H25v-261h32l-1 103c12-21 28-36 61-36 89 0 53 116 60 194h-32v-121c2-32-8-49-39-48" id="ae"/><path fill="#3a414a" d="M0 4l72-265h28L28 4H0" id="af"/><path fill="#3a414a" d="M101-234c-31-9-42 10-38 44h38v23H63V0H32v-167H5v-23h27c-7-52 17-82 69-68v24" id="ag"/><path fill="#3a414a" d="M33-261c38 41 65 92 65 168S71 34 33 75H2C39 34 66-17 66-93S39-220 2-261h31" id="ah"/><g id="k"><use transform="matrix(0.06172839506172839,0,0,0.06172839506172839,0,0)" xlink:href="#ac"/><use transform="matrix(0.06172839506172839,0,0,0.06172839506172839,7.345679012345679,0)" xlink:href="#ad"/><use transform="matrix(0.06172839506172839,0,0,0.06172839506172839,23.333333333333332,0)" xlink:href="#w"/><use transform="matrix(0.06172839506172839,0,0,0.06172839506172839,28.209876543209873,0)" xlink:href="#A"/><use transform="matrix(0.06172839506172839,0,0,0.06172839506172839,34.382716049382715,0)" xlink:href="#ae"/><use transform="matrix(0.06172839506172839,0,0,0.06172839506172839,46.72839506172839,0)" xlink:href="#Z"/><use transform="matrix(0.06172839506172839,0,0,0.06172839506172839,59.07407407407407,0)" xlink:href="#C"/><use transform="matrix(0.06172839506172839,0,0,0.06172839506172839,66.41975308641975,0)" xlink:href="#W"/><use transform="matrix(0.06172839506172839,0,0,0.06172839506172839,78.76543209876543,0)" xlink:href="#ad"/><use transform="matrix(0.06172839506172839,0,0,0.06172839506172839,94.75308641975309,0)" xlink:href="#af"/><use transform="matrix(0.06172839506172839,0,0,0.06172839506172839,100.92592592592592,0)" xlink:href="#C"/><use transform="matrix(0.06172839506172839,0,0,0.06172839506172839,108.27160493827161,0)" xlink:href="#z"/><use transform="matrix(0.06172839506172839,0,0,0.06172839506172839,120.61728395061729,0)" xlink:href="#ag"/><use transform="matrix(0.06172839506172839,0,0,0.06172839506172839,126.79012345679011,0)" xlink:href="#w"/><use transform="matrix(0.06172839506172839,0,0,0.06172839506172839,131.66666666666666,0)" xlink:href="#M"/><use transform="matrix(0.06172839506172839,0,0,0.06172839506172839,136.5432098765432,0)" xlink:href="#M"/><use transform="matrix(0.06172839506172839,0,0,0.06172839506172839,141.41975308641972,0)" xlink:href="#af"/><use transform="matrix(0.06172839506172839,0,0,0.06172839506172839,147.59259259259255,0)" xlink:href="#L"/><use transform="matrix(0.06172839506172839,0,0,0.06172839506172839,159.93827160493822,0)" xlink:href="#W"/><use transform="matrix(0.06172839506172839,0,0,0.06172839506172839,172.2839506172839,0)" xlink:href="#N"/><use transform="matrix(0.06172839506172839,0,0,0.06172839506172839,183.395061728395,0)" xlink:href="#F"/><use transform="matrix(0.06172839506172839,0,0,0.06172839506172839,195.74074074074068,0)" xlink:href="#G"/><use transform="matrix(0.06172839506172839,0,0,0.06172839506172839,208.08641975308635,0)" xlink:href="#A"/><use transform="matrix(0.06172839506172839,0,0,0.06172839506172839,214.25925925925918,0)" xlink:href="#ah"/></g><g id="l"><use transform="matrix(0.06172839506172839,0,0,0.06172839506172839,0,0)" xlink:href="#W"/><use transform="matrix(0.06172839506172839,0,0,0.06172839506172839,12.345679012345679,0)" xlink:href="#K"/><use transform="matrix(0.06172839506172839,0,0,0.06172839506172839,30.80246913580247,0)" xlink:href="#F"/><use transform="matrix(0.06172839506172839,0,0,0.06172839506172839,43.148148148148145,0)" xlink:href="#G"/><use transform="matrix(0.06172839506172839,0,0,0.06172839506172839,55.49382716049382,0)" xlink:href="#H"/><use transform="matrix(0.06172839506172839,0,0,0.06172839506172839,67.8395061728395,0)" xlink:href="#A"/></g><g id="m"><use transform="matrix(0.06172839506172839,0,0,0.06172839506172839,0,0)" xlink:href="#E"/><use transform="matrix(0.06172839506172839,0,0,0.06172839506172839,14.814814814814813,0)" xlink:href="#G"/><use transform="matrix(0.06172839506172839,0,0,0.06172839506172839,27.160493827160494,0)" xlink:href="#A"/><use transform="matrix(0.06172839506172839,0,0,0.06172839506172839,33.333333333333336,0)" xlink:href="#ae"/><use transform="matrix(0.06172839506172839,0,0,0.06172839506172839,45.67901234567901,0)" xlink:href="#B"/><use transform="matrix(0.06172839506172839,0,0,0.06172839506172839,60.49382716049382,0)" xlink:href="#z"/><use transform="matrix(0.06172839506172839,0,0,0.06172839506172839,72.8395061728395,0)" xlink:href="#C"/><use transform="matrix(0.06172839506172839,0,0,0.06172839506172839,80.18518518518519,0)" xlink:href="#D"/><use transform="matrix(0.06172839506172839,0,0,0.06172839506172839,91.2962962962963,0)" xlink:href="#w"/><use transform="matrix(0.06172839506172839,0,0,0.06172839506172839,96.17283950617285,0)" xlink:href="#x"/><use transform="matrix(0.06172839506172839,0,0,0.06172839506172839,107.28395061728396,0)" xlink:href="#z"/></g><path fill="#3a414a" d="M233-177c-1 41-23 64-60 70L243 0h-38l-65-103H63V0H30v-248c88 3 205-21 203 71zM63-129c60-2 137 13 137-47 0-61-80-42-137-45v92" id="ai"/><g id="n"><use transform="matrix(0.06172839506172839,0,0,0.06172839506172839,0,0)" xlink:href="#ai"/><use transform="matrix(0.06172839506172839,0,0,0.06172839506172839,15.987654320987653,0)" xlink:href="#F"/><use transform="matrix(0.06172839506172839,0,0,0.06172839506172839,28.333333333333332,0)" xlink:href="#M"/><use transform="matrix(0.06172839506172839,0,0,0.06172839506172839,33.20987654320987,0)" xlink:href="#z"/></g><g id="o"><use transform="matrix(0.06172839506172839,0,0,0.06172839506172839,0,0)" xlink:href="#v"/><use transform="matrix(0.06172839506172839,0,0,0.06172839506172839,12.716049382716047,0)" xlink:href="#w"/><use transform="matrix(0.06172839506172839,0,0,0.06172839506172839,17.592592592592588,0)" xlink:href="#x"/><use transform="matrix(0.06172839506172839,0,0,0.06172839506172839,28.7037037037037,0)" xlink:href="#y"/><use transform="matrix(0.06172839506172839,0,0,0.06172839506172839,39.81481481481481,0)" xlink:href="#z"/><use transform="matrix(0.06172839506172839,0,0,0.06172839506172839,52.16049382716049,0)" xlink:href="#A"/></g><path fill="#3a414a" d="M135-143c-3-34-86-38-87 0 15 53 115 12 119 90S17 21 10-45l28-5c4 36 97 45 98 0-10-56-113-15-118-90-4-57 82-63 122-42 12 7 21 19 24 35" id="aj"/><g id="p"><use transform="matrix(0.06172839506172839,0,0,0.06172839506172839,0,0)" xlink:href="#Z"/><use transform="matrix(0.06172839506172839,0,0,0.06172839506172839,12.345679012345679,0)" xlink:href="#z"/><use transform="matrix(0.06172839506172839,0,0,0.06172839506172839,24.691358024691358,0)" xlink:href="#aj"/><use transform="matrix(0.06172839506172839,0,0,0.06172839506172839,35.80246913580247,0)" xlink:href="#x"/><use transform="matrix(0.06172839506172839,0,0,0.06172839506172839,46.91358024691358,0)" xlink:href="#C"/><use transform="matrix(0.06172839506172839,0,0,0.06172839506172839,54.25925925925926,0)" xlink:href="#w"/><use transform="matrix(0.06172839506172839,0,0,0.06172839506172839,59.135802469135804,0)" xlink:href="#L"/><use transform="matrix(0.06172839506172839,0,0,0.06172839506172839,71.48148148148148,0)" xlink:href="#A"/><use transform="matrix(0.06172839506172839,0,0,0.06172839506172839,77.65432098765432,0)" xlink:href="#w"/><use transform="matrix(0.06172839506172839,0,0,0.06172839506172839,82.53086419753086,0)" xlink:href="#F"/><use transform="matrix(0.06172839506172839,0,0,0.06172839506172839,94.87654320987654,0)" xlink:href="#H"/></g><use transform="matrix(0.06172839506172839,0,0,0.06172839506172839,0,0)" xlink:href="#ab" id="q"/><path fill="#3a414a" d="M-5 72V49h209v23H-5" id="ak"/><g id="r"><use transform="matrix(0.06172839506172839,0,0,0.06172839506172839,0,0)" xlink:href="#W"/><use transform="matrix(0.06172839506172839,0,0,0.06172839506172839,12.345679012345679,0)" xlink:href="#aj"/><use transform="matrix(0.06172839506172839,0,0,0.06172839506172839,23.45679012345679,0)" xlink:href="#aj"/><use transform="matrix(0.06172839506172839,0,0,0.06172839506172839,34.5679012345679,0)" xlink:href="#w"/><use transform="matrix(0.06172839506172839,0,0,0.06172839506172839,39.44444444444444,0)" xlink:href="#H"/><use transform="matrix(0.06172839506172839,0,0,0.06172839506172839,51.79012345679012,0)" xlink:href="#I"/><use transform="matrix(0.06172839506172839,0,0,0.06172839506172839,64.1358024691358,0)" xlink:href="#K"/><use transform="matrix(0.06172839506172839,0,0,0.06172839506172839,82.59259259259258,0)" xlink:href="#z"/><use transform="matrix(0.06172839506172839,0,0,0.06172839506172839,94.93827160493827,0)" xlink:href="#H"/><use transform="matrix(0.06172839506172839,0,0,0.06172839506172839,107.28395061728395,0)" xlink:href="#A"/><use transform="matrix(0.06172839506172839,0,0,0.06172839506172839,113.45679012345678,0)" xlink:href="#ak"/><use transform="matrix(0.06172839506172839,0,0,0.06172839506172839,125.80246913580247,0)" xlink:href="#ag"/><use transform="matrix(0.06172839506172839,0,0,0.06172839506172839,131.97530864197532,0)" xlink:href="#z"/><use transform="matrix(0.06172839506172839,0,0,0.06172839506172839,144.320987654321,0)" xlink:href="#z"/></g><g id="s"><use transform="matrix(0.06172839506172839,0,0,0.06172839506172839,0,0)" xlink:href="#x"/><use transform="matrix(0.06172839506172839,0,0,0.06172839506172839,11.11111111111111,0)" xlink:href="#F"/><use transform="matrix(0.06172839506172839,0,0,0.06172839506172839,23.45679012345679,0)" xlink:href="#K"/><use transform="matrix(0.06172839506172839,0,0,0.06172839506172839,41.91358024691358,0)" xlink:href="#L"/><use transform="matrix(0.06172839506172839,0,0,0.06172839506172839,54.25925925925926,0)" xlink:href="#M"/><use transform="matrix(0.06172839506172839,0,0,0.06172839506172839,59.135802469135804,0)" xlink:href="#z"/><use transform="matrix(0.06172839506172839,0,0,0.06172839506172839,71.48148148148148,0)" xlink:href="#A"/><use transform="matrix(0.06172839506172839,0,0,0.06172839506172839,77.65432098765432,0)" xlink:href="#w"/><use transform="matrix(0.06172839506172839,0,0,0.06172839506172839,82.53086419753086,0)" xlink:href="#F"/><use transform="matrix(0.06172839506172839,0,0,0.06172839506172839,94.87654320987654,0)" xlink:href="#H"/><use transform="matrix(0.06172839506172839,0,0,0.06172839506172839,107.22222222222223,0)" xlink:href="#ak"/><use transform="matrix(0.06172839506172839,0,0,0.06172839506172839,119.56790123456791,0)" xlink:href="#W"/><use transform="matrix(0.06172839506172839,0,0,0.06172839506172839,131.9135802469136,0)" xlink:href="#K"/><use transform="matrix(0.06172839506172839,0,0,0.06172839506172839,150.37037037037038,0)" xlink:href="#F"/><use transform="matrix(0.06172839506172839,0,0,0.06172839506172839,162.71604938271605,0)" xlink:href="#G"/><use transform="matrix(0.06172839506172839,0,0,0.06172839506172839,175.06172839506172,0)" xlink:href="#H"/><use transform="matrix(0.06172839506172839,0,0,0.06172839506172839,187.4074074074074,0)" xlink:href="#A"/></g><g id="t"><use transform="matrix(0.06172839506172839,0,0,0.06172839506172839,0,0)" xlink:href="#B"/><use transform="matrix(0.06172839506172839,0,0,0.06172839506172839,14.814814814814813,0)" xlink:href="#A"/><use transform="matrix(0.06172839506172839,0,0,0.06172839506172839,20.98765432098765,0)" xlink:href="#W"/><use transform="matrix(0.06172839506172839,0,0,0.06172839506172839,33.33333333333333,0)" xlink:href="#A"/><use transform="matrix(0.06172839506172839,0,0,0.06172839506172839,39.50617283950617,0)" xlink:href="#G"/><use transform="matrix(0.06172839506172839,0,0,0.06172839506172839,51.85185185185185,0)" xlink:href="#aj"/></g><g id="u"><use transform="matrix(0.06172839506172839,0,0,0.06172839506172839,0,0)" xlink:href="#E"/><use transform="matrix(0.06172839506172839,0,0,0.06172839506172839,14.814814814814813,0)" xlink:href="#H"/><use transform="matrix(0.06172839506172839,0,0,0.06172839506172839,27.160493827160494,0)" xlink:href="#W"/><use transform="matrix(0.06172839506172839,0,0,0.06172839506172839,39.50617283950617,0)" xlink:href="#M"/><use transform="matrix(0.06172839506172839,0,0,0.06172839506172839,44.382716049382715,0)" xlink:href="#N"/><use transform="matrix(0.06172839506172839,0,0,0.06172839506172839,55.49382716049382,0)" xlink:href="#A"/><use transform="matrix(0.06172839506172839,0,0,0.06172839506172839,61.666666666666664,0)" xlink:href="#w"/><use transform="matrix(0.06172839506172839,0,0,0.06172839506172839,66.5432098765432,0)" xlink:href="#x"/><use transform="matrix(0.06172839506172839,0,0,0.06172839506172839,77.65432098765432,0)" xlink:href="#aj"/><use transform="matrix(0.06172839506172839,0,0,0.06172839506172839,88.76543209876543,0)" xlink:href="#B"/><use transform="matrix(0.06172839506172839,0,0,0.06172839506172839,103.58024691358024,0)" xlink:href="#z"/><use transform="matrix(0.06172839506172839,0,0,0.06172839506172839,115.92592592592592,0)" xlink:href="#C"/><use transform="matrix(0.06172839506172839,0,0,0.06172839506172839,123.27160493827161,0)" xlink:href="#D"/><use transform="matrix(0.06172839506172839,0,0,0.06172839506172839,134.3827160493827,0)" xlink:href="#w"/><use transform="matrix(0.06172839506172839,0,0,0.06172839506172839,139.25925925925924,0)" xlink:href="#x"/><use transform="matrix(0.06172839506172839,0,0,0.06172839506172839,150.37037037037035,0)" xlink:href="#z"/></g></defs></g></svg>